<?xml version="1.0" encoding="utf-8"?>
<!-- Generator: Adobe Illustrator 18.0.0, SVG Export Plug-In . SVG Version: 6.00 Build 0)  -->
<!DOCTYPE svg PUBLIC "-//W3C//DTD SVG 1.1//EN" "http://www.w3.org/Graphics/SVG/1.1/DTD/svg11.dtd">
<svg version="1.1" id="Layer_1" xmlns="http://www.w3.org/2000/svg" xmlns:xlink="http://www.w3.org/1999/xlink" x="0px" y="0px"
	 viewBox="0 0 250 250" enable-background="new 0 0 250 250" xml:space="preserve">
<g>
	<path fill="#F79420" d="M138.7,166l32.9,8.7l-6.5-17.7l34.7-27.4l-8.9-6.2l6.2-25L138.7,166L138.7,166z M194.2,96.5l-24.1,6.1
		l-4.8-10.6l-19.4,21.6l9.3-44.8l-14.6,8.4l-13.4-25.1l3.6,108.4L194.2,96.5L194.2,96.5z M53.5,98.4l6.2,25l-9,6.2l34.8,27.4
		L79,174.7l32.8-8.7L53.5,98.4L53.5,98.4z M119.9,160.6l3.6-108.4L110,77.2l-14.6-8.4l9.3,44.8L85.3,91.9l-4.8,10.6l-24.2-6.1
		L119.9,160.6L119.9,160.6z M125.2,212.5c47.1,0,85.5-38.1,85.5-85c0-46.9-38.4-85-85.5-85c-47.2,0-85.6,38.1-85.6,85
		C39.7,174.4,78.1,212.5,125.2,212.5L125.2,212.5z M125.2,17c61.2,0,111.1,49.6,111.1,110.6c0,61-49.8,110.6-111.1,110.6
		c-61.3,0-111.1-49.6-111.1-110.6C14.1,66.6,64,17,125.2,17L125.2,17z"/>
	<path fill="#FFFFFF" d="M20.4,127.9c-0.2-0.4-0.3-1.1-0.3-2c0.1-3.1,2.7-4.9,7-4.8c5.3,0.2,7.1,3.1,7.1,5.6c0,0.9-0.2,1.5-0.4,1.8
		L32,128c0.1-0.3,0.3-0.6,0.3-1.3c0.1-1.5-1.3-3.1-5.1-3.2c-3.7-0.1-5.1,1.2-5.2,2.9c0,0.4,0.1,1,0.2,1.3L20.4,127.9L20.4,127.9z"/>
	<path fill="#FFFFFF" d="M27.2,131.7c-3,0.2-5.1,0.9-5,2.3c0.1,1.4,2.6,1.7,5.3,1.5c2.5-0.1,5.1-0.7,5-2.1
		C32.4,131.9,30.2,131.5,27.2,131.7L27.2,131.7z M27.8,137.8c-5.2,0.3-7.4-1.4-7.6-3.8c-0.1-2.8,2.7-4.3,6.9-4.6
		c4.1-0.2,7.1,1.1,7.3,3.9C34.6,136.2,31.5,137.6,27.8,137.8L27.8,137.8z"/>
	<path fill="#FFFFFF" d="M21.1,141.5l13.7-2.4l0.3,2l-5.4,3.3c-1.2,0.7-2.8,1.6-4.1,2.3l0,0.1c1.7-0.4,3.8-0.9,6.3-1.3l3.8-0.7
		l0.4,1.9l-13.6,2.4l-0.4-2l5.4-3.3c1.2-0.8,2.7-1.6,4.1-2.2v0c-1.6,0.4-3.5,0.8-6.4,1.2l-3.8,0.7L21.1,141.5L21.1,141.5z"/>
	<path fill="#FFFFFF" d="M25.5,151.9c-0.1,0.6-0.1,1.5,0.1,2.2c0.4,1.3,1.3,1.8,2.4,1.5c1-0.2,1.5-1.1,1.9-2.4
		c0.6-1.7,1.6-3.2,3-3.5c2.1-0.6,4.2,0.4,4.8,2.9c0.2,0.9,0.1,1.7,0,2.1l-1.9,0.1c0.1-0.4,0.2-1.1,0-1.8c-0.4-1.2-1.3-1.5-2.1-1.3
		c-1,0.3-1.4,1-1.8,2.5c-0.6,2-1.7,3-3.2,3.4c-2.4,0.6-4.4-0.6-5-3.1c-0.3-0.9-0.3-2-0.1-2.5L25.5,151.9L25.5,151.9z"/>
	<polygon fill="#FFFFFF" points="33.7,164.4 32.5,161.4 28.5,162.9 29.8,166.4 27.9,167 25.8,161.4 38.8,156.7 40.8,162 39.1,162.7 
		37.8,159.4 34.2,160.7 35.4,163.8 33.7,164.4 	"/>
	<polygon fill="#FFFFFF" points="42.5,165.8 30,171.5 29,169.5 41.6,163.9 42.5,165.8 	"/>
	<polygon fill="#FFFFFF" points="43.6,168.1 44.7,170 34.1,175.7 35.8,178.9 34.2,179.8 31.4,174.7 43.6,168.1 	"/>
	<path fill="#FFFFFF" d="M40.3,186.2c0.1,0.2,0.2,0.4,0.3,0.5c0.9,1.2,2.7,1.6,6.2-0.8c2.5-1.8,3.5-3.6,2.5-5.2
		c-0.2-0.1-0.3-0.3-0.4-0.5L40.3,186.2L40.3,186.2z M48.8,177.6c0.5,0.4,1.1,1,1.7,1.8c0.9,1.3,1.3,2.4,1.1,3.6
		c-0.2,1.5-1.2,3.1-3.5,4.7c-2.5,1.7-4.4,2.2-5.9,1.9c-1.3-0.2-2.4-1-3.5-2.5c-0.4-0.6-0.8-1.3-1.1-1.7L48.8,177.6L48.8,177.6z"/>
	<path fill="#FFFFFF" d="M56.1,186.9l-6.8,6.1c-1.6,1.5-1.7,2.5-1.2,3.2c0.7,0.7,1.6,0.7,3.3-0.8l6.8-6l1.5,1.7l-6.5,5.7
		c-2.7,2.4-4.9,2.5-6.5,0.7c-1.6-1.9-1.1-4,1.4-6.2l6.6-5.9L56.1,186.9L56.1,186.9z"/>
	<path fill="#FFFFFF" d="M61.7,200.7l0.5,0.4c0.9,0.7,2.2,0.6,2.9-0.3c0.7-0.9,0.9-1.9-0.1-2.8c-0.3-0.2-0.5-0.4-0.6-0.5L61.7,200.7
		L61.7,200.7z M57.5,205.6c0.1,0.1,0.3,0.3,0.5,0.5c1,0.8,2.3,0.9,3.3-0.3c1.1-1.2,0.7-2.5-0.2-3.4l-0.5-0.4L57.5,205.6L57.5,205.6z
		 M63.6,195.1c0.7,0.3,1.5,0.9,2.2,1.5c1,0.8,1.8,1.7,1.9,2.9c0.2,0.9-0.2,1.8-0.8,2.5c-0.8,0.9-2.2,1.4-3.5,1l-0.1,0
		c1,1.4,0.8,2.9-0.2,4.3c-0.8,0.9-1.6,1.3-2.6,1.4c-1.1,0.2-2.5-0.4-4-1.7c-0.8-0.6-1.3-1.2-1.6-1.6L63.6,195.1L63.6,195.1z"/>
	<path fill="#FFFFFF" d="M76.1,200.8l0.2,2.8l-1.4-1l-0.1-1.5l-0.1,0l-1.4,0.4l-1.4-1l2.6-0.7L76.1,200.8L76.1,200.8z M69.8,210.3
		l1.3-2.9c0.4-0.9,0.9-2,1.4-2.9l0,0c-0.7,0.7-1.6,1.7-2.2,2.3l-2.4,2.3L69.8,210.3L69.8,210.3z M66.7,210.3l-2.7,2.6l-1.8-1.2
		l10.4-9.6l2.1,1.4l-5.5,13.1l-1.8-1.2l1.5-3.4L66.7,210.3L66.7,210.3z"/>
	<polygon fill="#FFFFFF" points="78,207.8 75.9,206.6 76.8,204.9 83.1,208.4 82.1,210.1 79.9,208.9 74,219.1 72.1,218.1 78,207.8 	
		"/>
	<polygon fill="#FFFFFF" points="86.4,210 80.4,222.5 78.4,221.5 84.5,209 86.4,210 	"/>
	<path fill="#FFFFFF" d="M93.6,222.1c0.5-1.5,1.1-3.3,1.7-4.7h-0.1c-0.7,1.3-1.7,2.7-2.5,3.9l-3.2,4.7l-1.4-0.4l0.7-5.7
		c0.1-1.4,0.3-3.1,0.6-4.7h0c-0.6,1.4-1.3,3.1-1.9,4.6l-2.1,4.9l-1.9-0.7l5.7-12.6l2.3,0.8l-0.7,5.7c-0.2,1.9-0.4,3.3-0.7,4.9v0
		c0.7-1.4,1.6-2.7,2.6-4.2l3.1-4.8l2.2,0.8l-4,13.3l-1.9-0.7L93.6,222.1L93.6,222.1z"/>
	<polygon fill="#FFFFFF" points="104.2,224 101,223.2 100,227.4 103.6,228.3 103.2,230.2 97.3,228.8 100.7,215.3 106.2,216.7 
		105.8,218.5 102.4,217.7 101.5,221.4 104.7,222.2 104.2,224 	"/>
	<path fill="#FFFFFF" d="M106.5,230.9l1.8-13.7l2,0.3l1.5,6.2c0.3,1.3,0.8,3.1,1,4.5l0,0c0.2-1.8,0.3-3.9,0.6-6.3l0.5-3.9l1.9,0.3
		l-1.8,13.7l-2-0.3l-1.6-6.1c-0.3-1.3-0.7-3-0.9-4.6h-0.1c-0.1,1.6-0.3,3.6-0.6,6.4l-0.5,3.8L106.5,230.9L106.5,230.9z"/>
	<polygon fill="#FFFFFF" points="119.7,220.5 117.3,220.4 117.4,218.4 124.5,218.7 124.4,220.8 121.9,220.6 121.3,232.4 
		119.2,232.3 119.7,220.5 	"/>
	<path fill="#FFFFFF" d="M132.5,230.5c0.2,0,0.4,0,0.5,0c1.5-0.1,2.7-1.5,2.4-5.7c-0.2-3.2-1.3-4.9-3.2-4.7c-0.2,0-0.4,0.1-0.7,0.1
		L132.5,230.5L132.5,230.5z M129.3,218.9c0.6-0.2,1.5-0.4,2.4-0.5c1.6-0.1,2.8,0.2,3.7,0.9c1.2,0.9,2,2.6,2.3,5.4
		c0.3,3-0.3,4.9-1.3,6c-0.8,1-2.1,1.6-3.8,1.7c-0.8,0.1-1.6,0.1-2,0.1L129.3,218.9L129.3,218.9z"/>
	<path fill="#FFFFFF" d="M141.1,217.3l1.8,8.9c0.4,2.2,1.2,2.8,2.2,2.6c0.9-0.1,1.4-1,0.9-3.2l-1.7-8.9l2.1-0.4l1.7,8.6
		c0.7,3.5-0.4,5.5-2.8,5.9c-2.5,0.4-4-1-4.7-4.4l-1.7-8.7L141.1,217.3L141.1,217.3z"/>
	<path fill="#FFFFFF" d="M152.6,221.2l0.6-0.2c1.2-0.4,1.7-1.6,1.3-3c-0.4-1.3-1.2-2-2.6-1.6c-0.2,0.1-0.5,0.2-0.6,0.3L152.6,221.2
		L152.6,221.2z M148.7,215.9c0.7-0.4,1.6-0.7,2.5-1c1.4-0.4,2.5-0.5,3.6,0c1,0.5,1.4,1.2,1.9,2.3c0.4,1.6,0,3-1.1,4v0.1
		c1,0,1.8,0.8,2.5,2.3c0.8,1.5,1.5,2.8,1.9,3.2l-2.2,0.6c-0.3-0.3-1-1.5-1.7-3c-0.8-1.6-1.4-2.1-2.5-1.7l-0.5,0.1l1.7,5.5l-2.1,0.6
		L148.7,215.9L148.7,215.9z"/>
	<path fill="#FFFFFF" d="M164.9,219l-1.8-2.7c-0.5-0.8-1.2-1.9-1.7-2.7h-0.1c0.3,1,0.6,2.2,0.8,3.1l0.7,3.1L164.9,219L164.9,219z
		 M163.2,221.5l0.7,3.6l-1.9,0.8l-2.6-14l2.4-1l8,11.6l-2,0.9l-2.1-3.1L163.2,221.5L163.2,221.5z"/>
	<path fill="#FFFFFF" d="M173.6,218.9c0.2-0.1,0.4-0.2,0.6-0.3c1.2-0.6,1.6-1.8,0.9-3.2c-0.7-1.5-2.1-1.6-3.3-1l-0.6,0.3
		L173.6,218.9L173.6,218.9z M170.5,213.3l0.6-0.3c1-0.6,1.4-1.8,0.8-2.8c-0.6-1-1.4-1.6-2.6-0.9c-0.3,0.2-0.5,0.3-0.7,0.5
		L170.5,213.3L170.5,213.3z M166,209.4c0.5-0.5,1.3-1.1,2.3-1.6c1.1-0.6,2.2-1,3.3-0.7c0.9,0.2,1.6,0.8,2.1,1.7
		c0.6,1.2,0.5,2.5-0.3,3.7l0,0c1.6-0.3,3.1,0.4,3.8,1.9c0.6,0.9,0.7,1.9,0.4,2.8c-0.2,1.1-1.2,2.2-3,3.2c-0.9,0.4-1.6,0.7-2,0.9
		L166,209.4L166,209.4z"/>
	<polygon fill="#FFFFFF" points="174,204.5 175.8,203.3 182.5,213.3 185.6,211.2 186.6,212.7 181.8,216 174,204.5 	"/>
	<polygon fill="#FFFFFF" points="189.1,202.7 186.6,204.8 189.3,208.3 192.3,205.9 193.5,207.4 188.8,211.1 180.1,200.3 
		184.6,196.7 185.8,198.3 183.1,200.4 185.5,203.4 188,201.3 189.1,202.7 	"/>
	<path fill="#FFFFFF" d="M198.8,200c0.1-0.1,0.3-0.3,0.4-0.3c1.1-1.1,1.1-3-1.9-6c-2.2-2.1-4.2-2.8-5.5-1.4
		c-0.1,0.2-0.3,0.4-0.4,0.6L198.8,200L198.8,200z M188.7,193.3c0.3-0.6,0.9-1.3,1.5-2c1.1-1.2,2.2-1.7,3.3-1.8
		c1.5-0.1,3.3,0.6,5.3,2.6c2.2,2.1,3,3.8,3,5.3c0,1.3-0.5,2.6-1.8,3.9c-0.5,0.6-1.2,1-1.5,1.3L188.7,193.3L188.7,193.3z"/>
	<path fill="#FFFFFF" d="M196.5,184.5l7.2,5.5c1.8,1.4,2.8,1.2,3.3,0.5c0.6-0.7,0.4-1.6-1.3-3.1l-7.2-5.6l1.3-1.7l6.9,5.3
		c2.9,2.2,3.3,4.4,1.8,6.2c-1.5,2-3.6,2-6.3-0.1l-7-5.5L196.5,184.5L196.5,184.5z"/>
	<path fill="#FFFFFF" d="M217.8,176.7c0,0.4-0.3,1.1-0.7,1.9c-1.6,2.8-4.7,3-8.4,0.9c-4.6-2.6-4.9-6-3.7-8.2c0.5-0.7,1-1.2,1.3-1.4
		l1.3,1.3c-0.3,0.2-0.6,0.4-0.8,1c-0.8,1.3-0.3,3.3,2.9,5.2c3.2,1.9,5.1,1.3,5.9-0.1c0.3-0.5,0.4-1,0.5-1.3L217.8,176.7L217.8,176.7
		z"/>
	<path fill="#FFFFFF" d="M216.5,167.7l-3.1-0.7c-0.9-0.2-2.2-0.6-3.1-0.9v0.1c0.8,0.5,1.9,1.3,2.6,1.7l2.7,1.9L216.5,167.7
		L216.5,167.7z M217,170.7l3,2.2l-0.9,1.9l-11.4-8.5l1.1-2.4l13.8,3.2l-0.9,1.9l-3.6-0.8L217,170.7L217,170.7z"/>
	<path fill="#FFFFFF" d="M223.7,164.2l-13.2-4.3l0.6-1.9l6.3-0.3c1.4-0.1,3.3-0.2,4.7-0.2l0,0c-1.7-0.4-3.8-1-6.1-1.8l-3.7-1.2
		l0.6-1.8l13.2,4.3l-0.7,2l-6.4,0.4c-1.3,0.1-3.1,0.1-4.6,0.1v0c1.5,0.4,3.4,0.9,6.1,1.8l3.7,1.2L223.7,164.2L223.7,164.2z"/>
	<path fill="#FFFFFF" d="M222.9,147.5l-3.2-0.1c-0.9,0-2.2-0.1-3.2-0.2v0.1c0.9,0.3,2.1,0.8,3,1.2l3,1.3L222.9,147.5L222.9,147.5z
		 M224,150.4l3.4,1.5l-0.5,2.1l-12.9-6l0.5-2.5l14.2,0.1l-0.5,2.1l-3.7-0.1L224,150.4L224,150.4z"/>
	<path fill="#FFFFFF" d="M227.8,140.3c0.1-0.2,0.1-0.4,0.1-0.5c0.2-1.5-0.9-3-5.1-3.4c-3.1-0.4-5,0.3-5.2,2.2
		c-0.1,0.2-0.1,0.5,0,0.6L227.8,140.3L227.8,140.3z M215.7,141.1c-0.1-0.7-0.1-1.5,0-2.5c0.2-1.6,0.7-2.7,1.6-3.5
		c1.1-1,2.9-1.4,5.7-1.1c2.9,0.3,4.8,1.3,5.6,2.4c0.8,1,1.2,2.4,1,4.2c0,0.8-0.2,1.5-0.4,2L215.7,141.1L215.7,141.1z"/>
	<path fill="#FFFFFF" d="M224.9,127.4l-3.2,0.6c-0.9,0.2-2.2,0.3-3.2,0.5v0.1c1,0.2,2.3,0.3,3.2,0.6l3.2,0.6V127.4L224.9,127.4z
		 M226.7,129.9l3.5,0.8v2.1l-13.8-3.2V127l13.9-2.6l-0.1,2.1l-3.6,0.7V129.9L226.7,129.9z"/>
	<path fill="#FFFFFF" d="M31.3,109.1c-0.4,1.7-1.8,2.8-3.7,2.4c-1.9-0.3-2.9-1.9-2.6-3.7c0.4-1.7,1.9-2.8,3.8-2.4
		C30.6,105.8,31.6,107.4,31.3,109.1L31.3,109.1L31.3,109.1z"/>
	<path fill="#FFFFFF" d="M41,92.9c0.1,0.4,0,1.1-0.3,2c-1.1,3-4.1,3.8-8.2,2.3c-5-1.8-5.8-5.1-5-7.4c0.4-0.9,0.7-1.4,0.9-1.6l1.6,1
		c-0.2,0.3-0.5,0.5-0.7,1.1c-0.5,1.4,0.2,3.4,3.8,4.6c3.5,1.3,5.2,0.4,5.8-1.2c0.2-0.4,0.2-0.9,0.2-1.3L41,92.9L41,92.9z"/>
	<path fill="#FFFFFF" d="M39.1,84.8L35.9,84c-0.9-0.2-2.1-0.6-3-0.9v0c0.8,0.6,1.9,1.3,2.6,1.9l2.6,1.9L39.1,84.8L39.1,84.8z
		 M39.5,87.9l3,2.2l-1,1.9l-11.1-8.8l1.2-2.3l13.7,3.5l-1,1.9l-3.6-0.9L39.5,87.9L39.5,87.9z"/>
	<path fill="#FFFFFF" d="M46.1,82.9l-11.8-7.4l1.1-1.7l6.3,1.2c1.3,0.2,3.2,0.6,4.6,0.9v0c-1.5-0.8-3.5-1.8-5.5-3.1l-3.3-2.1l1-1.6
		l11.8,7.3L49,78l-6.3-1.1c-1.3-0.3-3-0.6-4.5-1.1v0c1.4,0.8,3.1,1.7,5.6,3.3l3.3,2L46.1,82.9L46.1,82.9z"/>
	<path fill="#FFFFFF" d="M50.2,67.4l-2.9-1.5c-0.8-0.4-1.9-1.1-2.8-1.5v0.1c0.6,0.7,1.6,1.7,2.1,2.3l2.2,2.4L50.2,67.4L50.2,67.4z
		 M50,70.4l2.4,2.9L51,75l-9-11l1.5-2.1l12.7,6.3L55,70l-3.3-1.6L50,70.4L50,70.4z"/>
	<path fill="#FFFFFF" d="M57.7,64.2c0.2-0.1,0.3-0.3,0.4-0.4c1.1-1.1,1.1-2.9-1.9-5.9c-2.2-2.1-4.2-2.8-5.5-1.5
		c-0.2,0.2-0.3,0.4-0.4,0.6L57.7,64.2L57.7,64.2z M47.6,57.5c0.3-0.6,0.9-1.3,1.6-2c1.1-1.1,2.1-1.6,3.3-1.8
		c1.5-0.1,3.3,0.7,5.3,2.6c2.1,2.1,2.9,3.9,2.9,5.4c0,1.3-0.5,2.6-1.8,3.9c-0.5,0.6-1.1,1-1.5,1.3L47.6,57.5L47.6,57.5z"/>
	<path fill="#FFFFFF" d="M64.1,53.4l-2.5-2c-0.7-0.6-1.7-1.5-2.4-2.1l0,0.1c0.5,0.8,1.2,2,1.6,2.8l1.6,2.8L64.1,53.4L64.1,53.4z
		 M63.3,56.2l1.8,3.3l-1.7,1.4l-6.6-12.6l1.9-1.7l11.1,8.8l-1.7,1.4l-2.9-2.3L63.3,56.2L63.3,56.2z"/>
	<path fill="#FFFFFF" d="M79.9,48.3c-0.4,0.4-1.2,1.3-2,1.8c-1.2,0.8-2.4,1-3.7,0.7c-1.5-0.3-3.2-1.7-4.4-3.8
		c-2.8-4.4-1.4-7.6,0.9-9c0.8-0.5,1.5-0.7,2-0.8l0.6,1.8c-0.4,0-0.9,0.2-1.5,0.6c-1.5,1-2.2,2.9-0.1,6.2c2.1,3.2,3.9,3.5,5.1,2.8
		c0.3-0.2,0.5-0.4,0.6-0.5l-2.1-3.2l-1.2,0.8l-1-1.5l3-1.9L79.9,48.3L79.9,48.3z"/>
	<path fill="#FFFFFF" d="M80.8,39.9l0.5-0.3c1.2-0.6,1.5-1.9,0.9-3.2c-0.7-1.2-1.5-1.8-2.8-1.2c-0.2,0.1-0.5,0.3-0.6,0.4L80.8,39.9
		L80.8,39.9z M76.1,35.3c0.6-0.5,1.5-1,2.3-1.4c1.2-0.6,2.5-0.9,3.5-0.6c1,0.3,1.7,1,2.2,2.1c0.7,1.4,0.6,2.9-0.4,4l0.1,0.1
		c1-0.1,1.9,0.5,2.8,1.8c1,1.4,1.9,2.6,2.4,2.9l-2.1,1c-0.4-0.3-1.2-1.3-2.1-2.7C83.7,41,83,40.6,82,41.2l-0.5,0.2l2.6,5.1l-2,1
		L76.1,35.3L76.1,35.3z"/>
	<polygon fill="#FFFFFF" points="93.3,35.7 90.2,36.9 91.8,41 95.3,39.7 95.9,41.5 90.4,43.6 85.4,30.7 90.8,28.6 91.5,30.4 
		88.2,31.6 89.6,35.2 92.6,34 93.3,35.7 	"/>
	<polygon fill="#FFFFFF" points="101.3,33.3 98.1,34.2 99.3,38.4 102.9,37.4 103.5,39.3 97.8,40.9 93.9,27.6 99.5,26 100,27.9 
		96.6,28.8 97.6,32.4 100.8,31.6 101.3,33.3 	"/>
	<path fill="#FFFFFF" d="M105.3,38.8l-2.5-13.6l2-0.4l3.4,5.4c0.6,1.1,1.7,2.8,2.3,4h0.1c-0.4-1.7-0.9-3.8-1.4-6.3l-0.7-3.8l1.9-0.3
		l2.4,13.6l-1.9,0.4l-3.4-5.4c-0.7-1.1-1.6-2.7-2.2-4.1h-0.1c0.3,1.6,0.8,3.5,1.3,6.3l0.7,3.8L105.3,38.8L105.3,38.8z"/>
	<path fill="#FFFFFF" d="M120.8,35.1c0.2,0,0.4,0.1,0.7,0.1c1.3-0.1,2.3-0.9,2.2-2.4c0-1.7-1.2-2.5-2.5-2.4l-0.6,0L120.8,35.1
		L120.8,35.1z M120.6,28.7l0.7-0.1c1.1,0,1.9-0.9,1.9-2.2c0-1.2-0.6-2-1.9-2c-0.3,0-0.6,0.1-0.8,0.1L120.6,28.7L120.6,28.7z
		 M118.3,23.2c0.7-0.2,1.7-0.3,2.7-0.3c1.3-0.1,2.5,0.1,3.4,0.8c0.7,0.5,1,1.4,1,2.4c0.1,1.3-0.6,2.5-2,3.1v0
		c1.7,0.4,2.6,1.7,2.6,3.4c0.1,1.1-0.3,2-0.9,2.8c-0.8,0.9-2.1,1.4-4.1,1.5c-1,0-1.7,0-2.3-0.1L118.3,23.2L118.3,23.2z"/>
	<path fill="#FFFFFF" d="M131.4,23l-0.7,9.1c-0.2,2.2,0.4,3,1.3,3.1c1,0,1.6-0.6,1.8-2.9l0.7-9.1l2.2,0.2l-0.7,8.7
		c-0.3,3.6-1.8,5.2-4.2,5c-2.5-0.2-3.6-2-3.4-5.4l0.7-8.8L131.4,23L131.4,23z"/>
	<polygon fill="#FFFFFF" points="142.5,24.2 140.3,37.9 138.1,37.6 140.3,23.9 142.5,24.2 	"/>
	<polygon fill="#FFFFFF" points="145.9,24.9 148,25.3 145.4,37 149,37.8 148.6,39.7 142.9,38.4 145.9,24.9 	"/>
	<path fill="#FFFFFF" d="M152.9,39.1c0.1,0.1,0.3,0.2,0.4,0.2c1.5,0.5,3.2-0.3,4.5-4.3c1-3,0.6-5-1.1-5.6c-0.2-0.1-0.4-0.2-0.6-0.2
		L152.9,39.1L152.9,39.1z M154.5,27.1c0.6,0.1,1.5,0.3,2.4,0.5c1.6,0.5,2.5,1.2,3,2.2c0.8,1.3,0.9,3.3,0,5.9c-0.9,2.9-2.2,4.4-3.5,5
		c-1.2,0.6-2.6,0.7-4.3,0.1c-0.7-0.2-1.4-0.5-1.9-0.7L154.5,27.1L154.5,27.1z"/>
	<polygon fill="#FFFFFF" points="166.9,31.4 161.5,44.2 159.5,43.4 164.8,30.6 166.9,31.4 	"/>
	<path fill="#FFFFFF" d="M163.8,45.2l6.4-12.3l1.8,1l-0.7,6.3c-0.2,1.3-0.3,3.2-0.6,4.6h0.1c0.7-1.5,1.6-3.5,2.7-5.7l1.8-3.5
		l1.8,0.8l-6.4,12.4l-1.8-1l0.7-6.3c0.1-1.3,0.4-3.1,0.7-4.5l0,0c-0.7,1.4-1.5,3.2-2.8,5.8l-1.7,3.4L163.8,45.2L163.8,45.2z"/>
	<path fill="#FFFFFF" d="M179,53.7c-0.6-0.1-1.7-0.5-2.4-1c-1.2-0.8-2-1.8-2.2-3.1c-0.3-1.5,0.3-3.5,1.6-5.6
		c2.9-4.2,6.4-4.3,8.6-2.8c0.8,0.5,1.3,1.1,1.6,1.5l-1.4,1.3c-0.3-0.4-0.6-0.7-1.2-1.2c-1.5-1-3.6-0.8-5.8,2.5c-2,3.1-1.5,5-0.4,5.8
		c0.3,0.3,0.5,0.3,0.7,0.3l2.1-3.2l-1.2-0.8l1-1.5l2.9,1.9L179,53.7L179,53.7z"/>
	<path fill="#FFFFFF" d="M188.1,61.5c-0.4-0.1-1.1-0.5-1.7-1.1c-2.4-2.1-2-5.2,0.8-8.4c3.5-4,6.8-3.6,8.7-2c0.7,0.6,1,1.2,1.1,1.4
		l-1.5,1.1c-0.1-0.3-0.3-0.6-0.8-1c-1.1-1-3.2-1-5.7,1.8c-2.4,2.8-2.3,4.7-1,5.9c0.4,0.4,0.8,0.6,1.2,0.7L188.1,61.5L188.1,61.5z"/>
	<path fill="#FFFFFF" d="M195.2,59.1c-2.3,2.1-3.4,4-2.4,5c0.9,1,3.1-0.3,5.1-2.2c1.8-1.7,3.4-3.8,2.4-4.9
		C199.3,56,197.2,57.1,195.2,59.1L195.2,59.1z M199.5,63.4c-3.8,3.6-6.6,3.7-8.2,1.9c-1.8-2-0.6-5,2.4-7.9c3-2.9,6.2-3.7,8.1-1.7
		C203.7,57.9,202.2,60.9,199.5,63.4L199.5,63.4z"/>
	<path fill="#FFFFFF" d="M207.8,63.1l-7.3,5.5c-1.7,1.4-1.9,2.3-1.4,3.1c0.6,0.7,1.5,0.8,3.3-0.6l7.3-5.5l1.3,1.8l-7,5.3
		c-2.8,2.2-5,2-6.5,0.2c-1.5-2.1-0.9-4,1.8-6.2l7.1-5.3L207.8,63.1L207.8,63.1z"/>
	<path fill="#FFFFFF" d="M201.4,77.9l11.9-7.2l1,1.8l-3.9,5c-0.8,1.1-2,2.6-3,3.6v0.1c1.5-1,3.3-2.2,5.4-3.5l3.3-2l1,1.7l-12,7.1
		l-1-1.7l3.9-5.1c0.8-1.1,1.9-2.4,3-3.6l0,0c-1.3,0.9-3,2-5.4,3.4l-3.3,2L201.4,77.9L201.4,77.9z"/>
	<path fill="#FFFFFF" d="M209.4,92.4c-0.4-0.2-0.8-0.9-1.2-1.7c-1.4-2.8,0.2-5.6,4.1-7.4c4.8-2.3,7.8-0.5,8.8,1.7
		c0.4,0.8,0.4,1.5,0.4,1.8l-1.9,0.4c0-0.4-0.1-0.7-0.3-1.3c-0.7-1.3-2.5-2.1-6-0.5c-3.4,1.6-4,3.4-3.2,4.8c0.2,0.5,0.5,1,0.8,1.1
		L209.4,92.4L209.4,92.4z"/>
	<polygon fill="#FFFFFF" points="223.4,91.1 210.5,96.1 209.8,94 222.7,89 223.4,91.1 	"/>
	<polygon fill="#FFFFFF" points="224.6,94.4 225.3,96.5 213.9,100 214.9,103.5 213.1,104.1 211.4,98.5 224.6,94.4 	"/>
	<path fill="#FFFFFF" d="M220,113.1c-0.3-1.7,0.8-3.3,2.7-3.5c1.8-0.4,3.4,0.8,3.6,2.6c0.3,1.7-0.8,3.3-2.7,3.6
		C221.8,116,220.3,114.9,220,113.1L220,113.1L220,113.1z"/>
	<path fill="#F79420" d="M101.2,191.2c-0.1-1.8-0.2-4.1-0.1-5.9H101c-0.3,1.8-0.8,3.8-1.2,5.4l-1.7,6.7h-1.8l-1.6-6.5
		c-0.5-1.7-0.9-3.7-1.2-5.6h-0.1c0,1.9-0.1,4.1-0.2,6l-0.3,6.2h-2.3l1.2-16.5h2.7l1.6,6.7c0.5,2.1,0.9,3.8,1.3,5.7h0.1
		c0.3-1.8,0.7-3.5,1.2-5.7l1.6-6.7h2.8l1,16.5h-2.4L101.2,191.2L101.2,191.2z"/>
	<polygon fill="#F79420" points="113.4,190.1 109.5,190.1 109.5,195.3 113.9,195.3 113.9,197.6 106.9,197.6 106.9,181.1 
		113.6,181.1 113.6,183.4 109.5,183.4 109.5,187.9 113.4,187.9 113.4,190.1 	"/>
	<path fill="#F79420" d="M126.6,191.2c-0.1-1.8-0.2-4.1-0.2-5.9h0c-0.4,1.8-0.8,3.8-1.1,5.4l-1.8,6.7h-1.8l-1.6-6.5
		c-0.4-1.7-0.9-3.7-1.2-5.6h-0.1c-0.1,1.9-0.2,4.1-0.2,6l-0.3,6.2h-2.3l1.2-16.5h2.7l1.6,6.7c0.5,2.1,0.9,3.8,1.2,5.7h0
		c0.3-1.8,0.7-3.5,1.2-5.7l1.5-6.7h2.8l1,16.5H127L126.6,191.2L126.6,191.2z"/>
	<path fill="#F79420" d="M134.9,195.6c0.2,0,0.5,0,0.8,0c1.6,0,2.8-0.9,2.8-2.8c0-1.9-1.4-2.9-2.8-2.9h-0.7V195.6L134.9,195.6z
		 M134.9,188h0.7c1.3,0,2.4-1.1,2.4-2.6c0-1.4-0.6-2.4-2.2-2.4c-0.5,0-0.8,0-1,0.1V188L134.9,188z M132.3,181.4
		c0.9-0.2,2-0.3,3.2-0.3c1.5,0,2.9,0.3,3.9,1.2c0.9,0.7,1.2,1.7,1.2,2.9c0,1.5-0.9,2.9-2.5,3.6v0.1c1.9,0.6,3,2.1,3,4.1
		c0,1.4-0.4,2.4-1.2,3.2c-1,1.1-2.6,1.6-4.9,1.6c-1.2,0-2.1-0.1-2.7-0.2V181.4L132.3,181.4z"/>
	<polygon fill="#F79420" points="150.5,190.1 146.6,190.1 146.6,195.3 151,195.3 151,197.6 143.9,197.6 143.9,181.1 150.7,181.1 
		150.7,183.4 146.6,183.4 146.6,187.9 150.5,187.9 150.5,190.1 	"/>
	<path fill="#F79420" d="M156.3,188.7h0.6c1.6,0,2.6-1.2,2.6-2.9c0-1.6-0.7-2.7-2.4-2.7c-0.3,0-0.6,0-0.9,0.1V188.7L156.3,188.7z
		 M153.7,181.4c0.9-0.2,2-0.3,3.1-0.3c1.7,0,3.1,0.3,4.1,1.2c0.9,0.8,1.2,2,1.2,3.3c0,1.9-0.9,3.4-2.6,4.2v0c1.2,0.4,1.8,1.5,2,3.4
		c0.4,2,0.8,3.8,1.1,4.3H160c-0.2-0.4-0.6-2.1-0.9-4c-0.3-2.1-0.9-2.9-2.2-2.9h-0.6v6.8h-2.6V181.4L153.7,181.4z"/>
</g>
</svg>
