<?xml version="1.0" encoding="utf-8"?>
<!-- Generator: Adobe Illustrator 18.1.0, SVG Export Plug-In . SVG Version: 6.00 Build 0)  -->
<svg version="1.1" id="Layer_1" xmlns="http://www.w3.org/2000/svg" xmlns:xlink="http://www.w3.org/1999/xlink" x="0px" y="0px"
	 viewBox="4.3 93.8 602.4 602.4" enable-background="new 4.3 93.8 602.4 602.4" xml:space="preserve">
<g>
	<path fill="#5D4832" d="M606.7,640.8c0,30.6-24.9,55.5-55.5,55.5H59.8c-30.6,0-55.5-24.9-55.5-55.5V149.3
		c0-30.6,24.9-55.5,55.5-55.5h491.5c30.6,0,55.5,24.9,55.5,55.5V640.8z"/>
</g>
<g>
	<path fill="#FFFFFF" d="M250.5,394.6l0.5-77.9h63.6l1-34.9c0-13.9,8.1-63.1,53.5-84.6c42.6-19.6,122.9-12,122.9-12v83.7
		c0,0-47.8-4.3-60.2,3.8c-12,7.6-11,18.2-11,30.6v12.9h73.2v77.9l-71.7,1l-1,222.8H314.6V394.1h-64.1V394.6z"/>
</g>
</svg>
