<?xml version="1.0" encoding="utf-8"?>
<!-- Generator: Adobe Illustrator 18.0.0, SVG Export Plug-In . SVG Version: 6.00 Build 0)  -->
<!DOCTYPE svg PUBLIC "-//W3C//DTD SVG 1.1//EN" "http://www.w3.org/Graphics/SVG/1.1/DTD/svg11.dtd">
<svg version="1.1" id="Layer_1" xmlns="http://www.w3.org/2000/svg" xmlns:xlink="http://www.w3.org/1999/xlink" x="0px" y="0px"
	 viewBox="15 2 400 450" enable-background="new 15 2 400 450" xml:space="preserve">
<path fill="#F79422" d="M52.5,42l2.9,56.1l2.3,14.1l7.6,15.8v36.1c0,0,4,8.8,1.7,15.1c0,0-3.6,15.1,5.3,32.8l1.3,35.7
	c0,0-17.4,7.6-14.7,15.1c0,0,1.3,9.2,14.1,16.4v118.5H316c0,0-8.2-9.9-2.9-14.7c0,0,2.3-9.9-2.3-12.2c0,0-10.5-9.9-20-6.9
	c0,0-8.2-21.6-19.3-21c0,0-0.6-9.9-18.1-10.5c0,0-8.2-2.9-8.8-7.6l-1.3-38.5c0,0,12.2-12.2-6.9-19.3c0,0-2.3-11.8,1.7-13.5l12.2-9.9
	c0,0,9.2-2.3,14.1-12.8l-1.3-33.2c0,0,13.5-12.8,14.7-15.8c0,0,8.2-7.6,17.4-11.1l19.3-19.3c0,0-1.3-11.1,12.2-10.5
	c0,0,19.3-20,25.6-20l29.8-10.5l-21-3.6l-1.7-4.6l-25.2-0.6c0,0-3.6,2.9-6.5,0.6c0,0-2.3-9.2-12.2-4.6c0,0-8.8,12.2-22.7,5.3
	c0,0-8.2-9.9-15.8-9.2c0,0-7.6-8.8-13.5,0.6c0,0-5.3-1.7-5.3-7.6c0,0-4-3.6-12.2-2.9c0,0,1.3-12.8-8.8-11.8l-21.6-1.3
	c0,0-6.9,8.8-18.7,1.7l-11.1-0.6c0,0-2.3-5.9-17.4-3.6l-9.2-9.9l1.7-24c0,0-4-11.1-11.8-11.1l-8.8-0.6l0.6,12.8
	c0,0,2.3,13.5-8.8,7.6L52.5,42z"/>
</svg>
