<?xml version="1.0" encoding="utf-8"?>
<!-- Generator: Adobe Illustrator 18.0.0, SVG Export Plug-In . SVG Version: 6.00 Build 0)  -->
<!DOCTYPE svg PUBLIC "-//W3C//DTD SVG 1.1//EN" "http://www.w3.org/Graphics/SVG/1.1/DTD/svg11.dtd">
<svg version="1.1" id="Layer_1" xmlns="http://www.w3.org/2000/svg" xmlns:xlink="http://www.w3.org/1999/xlink" x="0px" y="0px"
	 viewBox="-24 71 600 600" enable-background="new -24 71 600 600" xml:space="preserve">
<radialGradient id="SVGID_1_" cx="1045.8621" cy="770.4917" r="6.6646" gradientTransform="matrix(1.945 0 0 -1.8052 -1557.8185 1771.3524)" gradientUnits="userSpaceOnUse">
	<stop  offset="0" style="stop-color:#F1F2F2"/>
	<stop  offset="1" style="stop-color:#BCBEC0"/>
</radialGradient>
<path fill="url(#SVGID_1_)" d="M486.1,384.6c0,6.7-5.7,12-12.9,12s-12.9-5.5-12.9-12c0-6.7,5.7-12,12.9-12S486.1,377.9,486.1,384.6z
	"/>
<radialGradient id="SVGID_2_" cx="199.6184" cy="676.7039" r="6.3839" gradientTransform="matrix(2.3906 0 0 -2.3906 0 1983.375)" gradientUnits="userSpaceOnUse">
	<stop  offset="0" style="stop-color:#F1F2F2"/>
	<stop  offset="1" style="stop-color:#C2B59B"/>
</radialGradient>
<path fill="url(#SVGID_2_)" d="M488.8,371c0,8.4-6.9,15.3-15.3,15.3s-15.3-6.9-15.3-15.3s6.9-15.3,15.3-15.3
	C481.8,355.7,488.8,362.4,488.8,371z"/>
<radialGradient id="SVGID_3_" cx="132.1984" cy="700.7104" r="6.4471" gradientTransform="matrix(2.3906 0 0 -2.3906 0 1983.375)" gradientUnits="userSpaceOnUse">
	<stop  offset="0" style="stop-color:#BCBEC0"/>
	<stop  offset="1" style="stop-color:#6D6E71"/>
</radialGradient>
<path fill="url(#SVGID_3_)" d="M327.6,313.6c0,8.6-6.9,15.3-15.3,15.3c-8.6,0-15.3-6.9-15.3-15.3c0-8.6,6.9-15.3,15.3-15.3
	C320.7,298.1,327.6,305,327.6,313.6z"/>
<radialGradient id="SVGID_4_" cx="143.5897" cy="694.9852" r="6.3839" gradientTransform="matrix(2.3906 0 0 -2.3906 0 1983.375)" gradientUnits="userSpaceOnUse">
	<stop  offset="0" style="stop-color:#F1F2F2"/>
	<stop  offset="1" style="stop-color:#C2B59B"/>
</radialGradient>
<path fill="url(#SVGID_4_)" d="M354.9,327.2c0,8.4-6.9,15.3-15.3,15.3s-15.3-6.9-15.3-15.3s6.9-15.3,15.3-15.3
	C347.9,311.9,354.9,318.9,354.9,327.2z"/>
<radialGradient id="SVGID_5_" cx="194.2267" cy="778.958" r="7.546" gradientTransform="matrix(2.3906 0 0 -2.3906 0 1983.375)" gradientUnits="userSpaceOnUse">
	<stop  offset="0" style="stop-color:#F1F2F2"/>
	<stop  offset="1" style="stop-color:#C2B59B"/>
</radialGradient>
<path fill="url(#SVGID_5_)" d="M478,127.4c0,10-8.1,17.9-17.9,17.9c-10,0-17.9-8.1-17.9-17.9c0-10,8.1-17.9,17.9-17.9
	C469.9,109.4,478,117.6,478,127.4z"/>
<radialGradient id="SVGID_6_" cx="181.4297" cy="772.6377" r="6.0254" gradientTransform="matrix(2.3906 0 0 -2.3906 0 1983.375)" gradientUnits="userSpaceOnUse">
	<stop  offset="0" style="stop-color:#F1F2F2"/>
	<stop  offset="1" style="stop-color:#BCBEC0"/>
</radialGradient>
<circle fill="url(#SVGID_6_)" cx="430.2" cy="141.2" r="14.3"/>
<radialGradient id="SVGID_7_" cx="194.0248" cy="771.5037" r="8.4757" gradientTransform="matrix(2.3906 0 0 -2.3906 0 1983.375)" gradientUnits="userSpaceOnUse">
	<stop  offset="0" style="stop-color:#F1F2F2"/>
	<stop  offset="1" style="stop-color:#C2B59B"/>
</radialGradient>
<path fill="url(#SVGID_7_)" d="M479.2,146c0,11.2-9.1,20.3-20.3,20.3s-20.3-9.1-20.3-20.3c0-11.2,9.1-20.3,20.3-20.3
	S479.2,134.8,479.2,146z"/>
<radialGradient id="SVGID_8_" cx="135.6411" cy="700.6502" r="5.4542" gradientTransform="matrix(2.3906 0 0 -2.3906 0 1983.375)" gradientUnits="userSpaceOnUse">
	<stop  offset="0" style="stop-color:#F1F2F2"/>
	<stop  offset="1" style="stop-color:#BCBEC0"/>
</radialGradient>
<circle fill="url(#SVGID_8_)" cx="321.2" cy="312.9" r="13.1"/>
<radialGradient id="SVGID_9_" cx="158.6921" cy="710.0032" r="6.026" gradientTransform="matrix(2.3906 0 0 -2.3906 0 1983.375)" gradientUnits="userSpaceOnUse">
	<stop  offset="0" style="stop-color:#F1F2F2"/>
	<stop  offset="1" style="stop-color:#BCBEC0"/>
</radialGradient>
<circle fill="url(#SVGID_9_)" cx="375.9" cy="290.9" r="14.3"/>
<radialGradient id="SVGID_10_" cx="181.6652" cy="763.015" r="10.4608" gradientTransform="matrix(2.3906 0 0 -2.3906 0 1983.375)" gradientUnits="userSpaceOnUse">
	<stop  offset="0" style="stop-color:#BCBEC0"/>
	<stop  offset="1" style="stop-color:#6D6E71"/>
</radialGradient>
<path fill="url(#SVGID_10_)" d="M453.1,168c0,13.9-11.2,25.1-25.1,25.1s-25.1-11.2-25.1-25.1c0-13.9,11.2-25.1,25.1-25.1
	S453.1,154.1,453.1,168z"/>
<radialGradient id="SVGID_11_" cx="189.5834" cy="674.7669" r="6.0258" gradientTransform="matrix(2.3906 0 0 -2.3906 0 1983.375)" gradientUnits="userSpaceOnUse">
	<stop  offset="0" style="stop-color:#F1F2F2"/>
	<stop  offset="1" style="stop-color:#BCBEC0"/>
</radialGradient>
<circle fill="url(#SVGID_11_)" cx="449.8" cy="375.3" r="14.3"/>
<radialGradient id="SVGID_12_" cx="128.3015" cy="711.8496" r="8.7101" gradientTransform="matrix(2.3906 0 0 -2.3906 0 1983.375)" gradientUnits="userSpaceOnUse">
	<stop  offset="0" style="stop-color:#F1F2F2"/>
	<stop  offset="1" style="stop-color:#C2B59B"/>
</radialGradient>
<path fill="url(#SVGID_12_)" d="M322.4,288.7c0,11.5-9.3,20.8-20.8,20.8c-11.5,0-20.8-9.3-20.8-20.8c0-11.5,9.3-20.8,20.8-20.8
	S322.4,277.3,322.4,288.7z"/>
<radialGradient id="SVGID_13_" cx="177.1833" cy="749.0138" r="9.4062" gradientTransform="matrix(2.3906 0 0 -2.3906 0 1983.375)" gradientUnits="userSpaceOnUse">
	<stop  offset="0" style="stop-color:#F1F2F2"/>
	<stop  offset="1" style="stop-color:#C2B59B"/>
</radialGradient>
<path fill="url(#SVGID_13_)" d="M440.5,200.5c0,12.4-10,22.5-22.5,22.5s-22.5-10-22.5-22.5c0-12.4,10-22.5,22.5-22.5
	C430.4,178,440.5,188.1,440.5,200.5z"/>
<radialGradient id="SVGID_14_" cx="156.9255" cy="688.6015" r="6.3834" gradientTransform="matrix(2.3906 0 0 -2.3906 0 1983.375)" gradientUnits="userSpaceOnUse">
	<stop  offset="0" style="stop-color:#BCBEC0"/>
	<stop  offset="1" style="stop-color:#6D6E71"/>
</radialGradient>
<path fill="url(#SVGID_14_)" d="M386.7,342.5c0,8.4-6.9,15.3-15.3,15.3s-15.3-6.9-15.3-15.3s6.9-15.3,15.3-15.3
	C379.7,327.2,386.7,333.9,386.7,342.5z"/>
<radialGradient id="SVGID_15_" cx="177.4833" cy="725.8502" r="11.5008" gradientTransform="matrix(2.3906 0 0 -2.3906 0 1983.375)" gradientUnits="userSpaceOnUse">
	<stop  offset="0" style="stop-color:#F1F2F2"/>
	<stop  offset="1" style="stop-color:#BCBEC0"/>
</radialGradient>
<path fill="url(#SVGID_15_)" d="M445,257.6c0,15.1-12.4,27.5-27.5,27.5c-15.3,0-27.5-12.2-27.5-27.5s12.4-27.5,27.5-27.5
	C432.8,230.2,445,242.3,445,257.6z"/>
<radialGradient id="SVGID_16_" cx="139.3872" cy="734.2304" r="7.546" gradientTransform="matrix(2.3906 0 0 -2.3906 0 1983.375)" gradientUnits="userSpaceOnUse">
	<stop  offset="0" style="stop-color:#F1F2F2"/>
	<stop  offset="1" style="stop-color:#BCBEC0"/>
</radialGradient>
<path fill="url(#SVGID_16_)" d="M346.8,234.2c0,10-8.1,17.9-17.9,17.9c-10,0-17.9-8.1-17.9-17.9c0-10,8.1-17.9,17.9-17.9
	S346.8,224.4,346.8,234.2z"/>
<radialGradient id="SVGID_17_" cx="161.6271" cy="719.108" r="5.6865" gradientTransform="matrix(2.3906 0 0 -2.3906 0 1983.375)" gradientUnits="userSpaceOnUse">
	<stop  offset="0" style="stop-color:#F1F2F2"/>
	<stop  offset="1" style="stop-color:#BCBEC0"/>
</radialGradient>
<circle fill="url(#SVGID_17_)" cx="383.1" cy="268.9" r="13.6"/>
<radialGradient id="SVGID_18_" cx="166.9809" cy="711.8432" r="6.3837" gradientTransform="matrix(2.3906 0 0 -2.3906 0 1983.375)" gradientUnits="userSpaceOnUse">
	<stop  offset="0" style="stop-color:#F1F2F2"/>
	<stop  offset="1" style="stop-color:#BCBEC0"/>
</radialGradient>
<path fill="url(#SVGID_18_)" d="M410.6,286.8c0,8.4-6.9,15.3-15.3,15.3s-15.3-6.9-15.3-15.3s6.9-15.3,15.3-15.3
	C403.9,271.5,410.6,278.4,410.6,286.8z"/>
<radialGradient id="SVGID_19_" cx="152.3923" cy="717.5738" r="5.285" gradientTransform="matrix(2.3906 0 0 -2.3906 0 1983.375)" gradientUnits="userSpaceOnUse">
	<stop  offset="0" style="stop-color:#F1F2F2"/>
	<stop  offset="1" style="stop-color:#BCBEC0"/>
</radialGradient>
<path fill="url(#SVGID_19_)" d="M373.8,272.2c0,6.9-5.7,12.7-12.7,12.7c-6.9,0-12.7-5.7-12.7-12.7c0-6.9,5.7-12.7,12.7-12.7
	C368.3,259.6,373.8,265.3,373.8,272.2z"/>
<radialGradient id="SVGID_20_" cx="167.9624" cy="739.5417" r="7.0804" gradientTransform="matrix(2.3906 0 0 -2.3906 0 1983.375)" gradientUnits="userSpaceOnUse">
	<stop  offset="0" style="stop-color:#F1F2F2"/>
	<stop  offset="1" style="stop-color:#BCBEC0"/>
</radialGradient>
<path fill="url(#SVGID_20_)" d="M414.4,221.3c0,9.3-7.6,17-17,17c-9.3,0-17-7.7-17-17c0-9.3,7.6-17,17-17S414.4,212,414.4,221.3z"/>
<radialGradient id="SVGID_21_" cx="138.7618" cy="722.0829" r="8.7108" gradientTransform="matrix(2.3906 0 0 -2.3906 0 1983.375)" gradientUnits="userSpaceOnUse">
	<stop  offset="0" style="stop-color:#BCBEC0"/>
	<stop  offset="1" style="stop-color:#6D6E71"/>
</radialGradient>
<path fill="url(#SVGID_21_)" d="M347.5,264.3c0,11.5-9.3,20.8-20.8,20.8s-20.8-9.3-20.8-20.8c0-11.5,9.3-20.8,20.8-20.8
	S347.5,252.9,347.5,264.3z"/>
<radialGradient id="SVGID_22_" cx="147.6018" cy="709.3184" r="11.5016" gradientTransform="matrix(2.3906 0 0 -2.3906 0 1983.375)" gradientUnits="userSpaceOnUse">
	<stop  offset="0" style="stop-color:#F1F2F2"/>
	<stop  offset="1" style="stop-color:#BCBEC0"/>
</radialGradient>
<circle fill="url(#SVGID_22_)" cx="346" cy="297.1" r="27.5"/>
<radialGradient id="SVGID_23_" cx="149.0627" cy="737.4241" r="7.5464" gradientTransform="matrix(2.3906 0 0 -2.3906 0 1983.375)" gradientUnits="userSpaceOnUse">
	<stop  offset="0" style="stop-color:#F1F2F2"/>
	<stop  offset="1" style="stop-color:#BCBEC0"/>
</radialGradient>
<path fill="url(#SVGID_23_)" d="M369.9,226.6c0,10-8.1,17.9-17.9,17.9c-10,0-17.9-8.1-17.9-17.9c0-10,8.1-17.9,17.9-17.9
	S369.9,216.8,369.9,226.6z"/>
<radialGradient id="SVGID_24_" cx="181.5462" cy="736.7163" r="8.4749" gradientTransform="matrix(2.3906 0 0 -2.3906 0 1983.375)" gradientUnits="userSpaceOnUse">
	<stop  offset="0" style="stop-color:#F1F2F2"/>
	<stop  offset="1" style="stop-color:#C2B59B"/>
</radialGradient>
<path fill="url(#SVGID_24_)" d="M449.3,229.2c0,11.2-9.1,20.3-20.3,20.3s-20.3-9.1-20.3-20.3c0-11.2,9.1-20.3,20.3-20.3
	S449.3,218,449.3,229.2z"/>
<radialGradient id="SVGID_25_" cx="150.6135" cy="724.9094" r="7.5452" gradientTransform="matrix(2.3906 0 0 -2.3906 0 1983.375)" gradientUnits="userSpaceOnUse">
	<stop  offset="0" style="stop-color:#F1F2F2"/>
	<stop  offset="1" style="stop-color:#BCBEC0"/>
</radialGradient>
<path fill="url(#SVGID_25_)" d="M373.8,256.7c0,10-8.1,17.9-17.9,17.9c-10,0-17.9-8.1-17.9-17.9c0-10,8.1-17.9,17.9-17.9
	C365.6,238.5,373.8,246.7,373.8,256.7z"/>
<radialGradient id="SVGID_26_" cx="181.2593" cy="679.0511" r="7.0805" gradientTransform="matrix(2.3906 0 0 -2.3906 0 1983.375)" gradientUnits="userSpaceOnUse">
	<stop  offset="0" style="stop-color:#F1F2F2"/>
	<stop  offset="1" style="stop-color:#BCBEC0"/>
</radialGradient>
<path fill="url(#SVGID_26_)" stroke="#FFFFFF" d="M446,365.9c0,9.3-7.6,17-17,17c-9.3,0-17-7.6-17-17s7.6-17,17-17
	C438.6,349,446,356.6,446,365.9z"/>
<radialGradient id="SVGID_27_" cx="170.9802" cy="681.5279" r="7.0806" gradientTransform="matrix(2.3906 0 0 -2.3906 0 1983.375)" gradientUnits="userSpaceOnUse">
	<stop  offset="0" style="stop-color:#F1F2F2"/>
	<stop  offset="1" style="stop-color:#BCBEC0"/>
</radialGradient>
<path fill="url(#SVGID_27_)" d="M421.6,360c0,9.3-7.6,17-17,17c-9.3,0-17-7.6-17-17s7.6-17,17-17S421.6,350.6,421.6,360z"/>
<radialGradient id="SVGID_28_" cx="143.5931" cy="711.7099" r="5.6861" gradientTransform="matrix(2.3906 0 0 -2.3906 0 1983.375)" gradientUnits="userSpaceOnUse">
	<stop  offset="0" style="stop-color:#F1F2F2"/>
	<stop  offset="1" style="stop-color:#C2B59B"/>
</radialGradient>
<circle fill="url(#SVGID_28_)" cx="339.8" cy="286.6" r="13.6"/>
<radialGradient id="SVGID_29_" cx="191.1213" cy="734.7587" r="6.9833" gradientTransform="matrix(2.3906 0 0 -2.3906 0 1983.375)" gradientUnits="userSpaceOnUse">
	<stop  offset="0" style="stop-color:#F1F2F2"/>
	<stop  offset="1" style="stop-color:#BCBEC0"/>
</radialGradient>
<path fill="url(#SVGID_29_)" d="M469.4,232.5c0,9.3-7.4,16.7-16.7,16.7s-16.7-7.4-16.7-16.7c0-9.3,7.4-16.7,16.7-16.7
	S469.4,223.5,469.4,232.5z"/>
<radialGradient id="SVGID_30_" cx="151.8382" cy="693.2102" r="5.2843" gradientTransform="matrix(2.3906 0 0 -2.3906 0 1983.375)" gradientUnits="userSpaceOnUse">
	<stop  offset="0" style="stop-color:#F1F2F2"/>
	<stop  offset="1" style="stop-color:#BCBEC0"/>
</radialGradient>
<path fill="url(#SVGID_30_)" d="M372.6,330.6c0,6.9-5.7,12.7-12.7,12.7c-6.9,0-12.7-5.7-12.7-12.7c0-6.9,5.7-12.7,12.7-12.7
	C366.8,317.9,372.6,323.6,372.6,330.6z"/>
<radialGradient id="SVGID_31_" cx="128.887" cy="716.9209" r="5.4514" gradientTransform="matrix(2.3906 0 0 -2.3906 0 1983.375)" gradientUnits="userSpaceOnUse">
	<stop  offset="0" style="stop-color:#BCBEC0"/>
	<stop  offset="1" style="stop-color:#6D6E71"/>
</radialGradient>
<path fill="url(#SVGID_31_)" d="M317.8,273.9c0,7.2-5.7,13.1-13.1,13.1c-7.2,0-12.9-5.7-12.9-13.1c0-7.2,5.7-12.9,12.9-12.9
	C312.1,261,317.8,266.7,317.8,273.9z"/>
<radialGradient id="SVGID_32_" cx="159.9791" cy="740.2354" r="7.5452" gradientTransform="matrix(2.3906 0 0 -2.3906 0 1983.375)" gradientUnits="userSpaceOnUse">
	<stop  offset="0" style="stop-color:#F1F2F2"/>
	<stop  offset="1" style="stop-color:#BCBEC0"/>
</radialGradient>
<path fill="url(#SVGID_32_)" d="M396,219.9c0,10-8.1,17.9-17.9,17.9c-10,0-17.9-8.1-17.9-17.9c0-10,8.1-17.9,17.9-17.9
	C387.9,201.9,396,210.1,396,219.9z"/>
<radialGradient id="SVGID_33_" cx="200.9251" cy="766.2656" r="6.0035" gradientTransform="matrix(2.3906 0 0 -2.3906 0 1983.375)" gradientUnits="userSpaceOnUse">
	<stop  offset="0" style="stop-color:#F1F2F2"/>
	<stop  offset="1" style="stop-color:#BCBEC0"/>
</radialGradient>
<path fill="url(#SVGID_33_)" d="M491.1,156.5c0,7.9-6.5,14.3-14.3,14.3s-14.3-6.5-14.3-14.3c0-7.9,6.5-14.3,14.3-14.3
	C484.7,142.2,491.1,148.6,491.1,156.5z"/>
<radialGradient id="SVGID_34_" cx="205.8246" cy="666.0887" r="7.5459" gradientTransform="matrix(2.3906 0 0 -2.3906 0 1983.375)" gradientUnits="userSpaceOnUse">
	<stop  offset="0" style="stop-color:#F1F2F2"/>
	<stop  offset="1" style="stop-color:#C2B59B"/>
</radialGradient>
<path fill="url(#SVGID_34_)" d="M505.7,397.3c0,10-8.1,17.9-17.9,17.9c-10,0-17.9-8.1-17.9-17.9c0-10,8.1-17.9,17.9-17.9
	C497.6,379.1,505.7,387.2,505.7,397.3z"/>
<radialGradient id="SVGID_35_" cx="193.012" cy="659.3858" r="6.0255" gradientTransform="matrix(2.3906 0 0 -2.3906 0 1983.375)" gradientUnits="userSpaceOnUse">
	<stop  offset="0" style="stop-color:#F1F2F2"/>
	<stop  offset="1" style="stop-color:#BCBEC0"/>
</radialGradient>
<circle fill="url(#SVGID_35_)" cx="457.9" cy="412.1" r="14.3"/>
<radialGradient id="SVGID_36_" cx="205.6075" cy="658.2519" r="8.4757" gradientTransform="matrix(2.3906 0 0 -2.3906 0 1983.375)" gradientUnits="userSpaceOnUse">
	<stop  offset="0" style="stop-color:#F1F2F2"/>
	<stop  offset="1" style="stop-color:#C2B59B"/>
</radialGradient>
<path fill="url(#SVGID_36_)" d="M506.7,416.6c0,11.2-9.1,20.3-20.3,20.3s-20.3-9.1-20.3-20.3s9.1-20.3,20.3-20.3
	C497.8,396.5,506.7,405.6,506.7,416.6z"/>
<radialGradient id="SVGID_37_" cx="146.1099" cy="589.6906" r="5.4542" gradientTransform="matrix(2.3906 0 0 -2.3906 0 1983.375)" gradientUnits="userSpaceOnUse">
	<stop  offset="0" style="stop-color:#F1F2F2"/>
	<stop  offset="1" style="stop-color:#BCBEC0"/>
</radialGradient>
<path fill="url(#SVGID_37_)" d="M359.2,578.2c0,7.2-5.7,13.1-13.1,13.1c-7.2,0-13.1-5.7-13.1-13.1c0-7.2,5.7-13.1,13.1-13.1
	C353.2,565.1,359.2,571.1,359.2,578.2z"/>
<radialGradient id="SVGID_38_" cx="170.2745" cy="596.7513" r="6.026" gradientTransform="matrix(2.3906 0 0 -2.3906 0 1983.375)" gradientUnits="userSpaceOnUse">
	<stop  offset="0" style="stop-color:#F1F2F2"/>
	<stop  offset="1" style="stop-color:#BCBEC0"/>
</radialGradient>
<circle fill="url(#SVGID_38_)" cx="403.4" cy="561.7" r="14.3"/>
<radialGradient id="SVGID_39_" cx="193.2476" cy="649.7632" r="10.4607" gradientTransform="matrix(2.3906 0 0 -2.3906 0 1983.375)" gradientUnits="userSpaceOnUse">
	<stop  offset="0" style="stop-color:#BCBEC0"/>
	<stop  offset="1" style="stop-color:#6D6E71"/>
</radialGradient>
<path fill="url(#SVGID_39_)" d="M480.9,438.6c0,13.9-11.2,25.1-25.1,25.1s-25.1-11.2-25.1-25.1s11.2-25.1,25.1-25.1
	C469.6,413.8,480.9,424.8,480.9,438.6z"/>
<radialGradient id="SVGID_40_" cx="139.8839" cy="598.599" r="8.7108" gradientTransform="matrix(2.3906 0 0 -2.3906 0 1983.375)" gradientUnits="userSpaceOnUse">
	<stop  offset="0" style="stop-color:#F1F2F2"/>
	<stop  offset="1" style="stop-color:#C2B59B"/>
</radialGradient>
<path fill="url(#SVGID_40_)" d="M350.1,559.6c0,11.5-9.3,20.8-20.8,20.8s-20.8-9.3-20.8-20.8s9.3-20.8,20.8-20.8
	C340.8,538.8,350.1,548.1,350.1,559.6z"/>
<radialGradient id="SVGID_41_" cx="143.7808" cy="587.4598" r="6.4478" gradientTransform="matrix(2.3906 0 0 -2.3906 0 1983.375)" gradientUnits="userSpaceOnUse">
	<stop  offset="0" style="stop-color:#BCBEC0"/>
	<stop  offset="1" style="stop-color:#6D6E71"/>
</radialGradient>
<path fill="url(#SVGID_41_)" d="M355.4,584.2c0,8.6-6.9,15.3-15.3,15.3c-8.6,0-15.3-6.9-15.3-15.3c0-8.6,6.9-15.3,15.3-15.3
	C348.4,568.9,355.4,575.8,355.4,584.2z"/>
<radialGradient id="SVGID_42_" cx="188.7657" cy="635.7619" r="9.4062" gradientTransform="matrix(2.3906 0 0 -2.3906 0 1983.375)" gradientUnits="userSpaceOnUse">
	<stop  offset="0" style="stop-color:#F1F2F2"/>
	<stop  offset="1" style="stop-color:#C2B59B"/>
</radialGradient>
<path fill="url(#SVGID_42_)" d="M468.2,471.4c0,12.4-10,22.5-22.5,22.5s-22.5-10-22.5-22.5s10-22.5,22.5-22.5
	C458.2,448.9,468.2,458.9,468.2,471.4z"/>
<radialGradient id="SVGID_43_" cx="210.3747" cy="640.0774" r="14.0595" gradientTransform="matrix(2.3906 0 0 -2.3906 0 1983.375)" gradientUnits="userSpaceOnUse">
	<stop  offset="0" style="stop-color:#F1F2F2"/>
	<stop  offset="1" style="stop-color:#BCBEC0"/>
</radialGradient>
<path fill="url(#SVGID_43_)" d="M528.2,464.7c0,18.6-15.1,33.7-33.7,33.7c-18.6,0-33.7-15.1-33.7-33.7s15.1-33.7,33.7-33.7
	C513.1,431.2,528.2,446.3,528.2,464.7z"/>
<radialGradient id="SVGID_44_" cx="189.0659" cy="612.5983" r="11.5009" gradientTransform="matrix(2.3906 0 0 -2.3906 0 1983.375)" gradientUnits="userSpaceOnUse">
	<stop  offset="0" style="stop-color:#F1F2F2"/>
	<stop  offset="1" style="stop-color:#BCBEC0"/>
</radialGradient>
<path fill="url(#SVGID_44_)" d="M472.7,528.3c0,15.1-12.4,27.5-27.5,27.5c-15.3,0-27.5-12.2-27.5-27.5s12.4-27.5,27.5-27.5
	S472.7,513.2,472.7,528.3z"/>
<radialGradient id="SVGID_45_" cx="151.9537" cy="620.6514" r="7.5464" gradientTransform="matrix(2.3906 0 0 -2.3906 0 1983.375)" gradientUnits="userSpaceOnUse">
	<stop  offset="0" style="stop-color:#F1F2F2"/>
	<stop  offset="1" style="stop-color:#BCBEC0"/>
</radialGradient>
<path fill="url(#SVGID_45_)" d="M376.9,505.8c0,10-8.1,17.9-17.9,17.9c-10,0-17.9-8.1-17.9-17.9c0-10,8.1-17.9,17.9-17.9
	C368.7,487.9,376.9,496,376.9,505.8z"/>
<radialGradient id="SVGID_46_" cx="173.2095" cy="605.8561" r="5.6865" gradientTransform="matrix(2.3906 0 0 -2.3906 0 1983.375)" gradientUnits="userSpaceOnUse">
	<stop  offset="0" style="stop-color:#F1F2F2"/>
	<stop  offset="1" style="stop-color:#BCBEC0"/>
</radialGradient>
<circle fill="url(#SVGID_46_)" cx="410.8" cy="539.7" r="13.6"/>
<radialGradient id="SVGID_47_" cx="177.2086" cy="599.5976" r="6.3837" gradientTransform="matrix(2.3906 0 0 -2.3906 0 1983.375)" gradientUnits="userSpaceOnUse">
	<stop  offset="0" style="stop-color:#BCBEC0"/>
	<stop  offset="1" style="stop-color:#6D6E71"/>
</radialGradient>
<path fill="url(#SVGID_47_)" d="M435.2,555.3c0,8.4-6.9,15.3-15.3,15.3s-15.3-6.9-15.3-15.3s6.9-15.3,15.3-15.3
	S435.2,546.9,435.2,555.3z"/>
<radialGradient id="SVGID_48_" cx="171.7532" cy="617.2904" r="7.5466" gradientTransform="matrix(2.3906 0 0 -2.3906 0 1983.375)" gradientUnits="userSpaceOnUse">
	<stop  offset="0" style="stop-color:#F1F2F2"/>
	<stop  offset="1" style="stop-color:#C2B59B"/>
</radialGradient>
<path fill="url(#SVGID_48_)" d="M424.2,513.9c0,10-8.1,17.9-17.9,17.9c-10,0-17.9-8.1-17.9-17.9c0-10,8.1-17.9,17.9-17.9
	C416.1,495.8,424.2,503.9,424.2,513.9z"/>
<radialGradient id="SVGID_49_" cx="163.9749" cy="604.3225" r="5.2843" gradientTransform="matrix(2.3906 0 0 -2.3906 0 1983.375)" gradientUnits="userSpaceOnUse">
	<stop  offset="0" style="stop-color:#F1F2F2"/>
	<stop  offset="1" style="stop-color:#BCBEC0"/>
</radialGradient>
<path fill="url(#SVGID_49_)" d="M401.5,543.1c0,6.9-5.7,12.7-12.7,12.7c-6.9,0-12.7-5.7-12.7-12.7c0-6.9,5.7-12.7,12.7-12.7
	C395.8,530.4,401.5,536.2,401.5,543.1z"/>
<radialGradient id="SVGID_50_" cx="179.5448" cy="625.3069" r="7.0811" gradientTransform="matrix(2.3906 0 0 -2.3906 0 1983.375)" gradientUnits="userSpaceOnUse">
	<stop  offset="0" style="stop-color:#F1F2F2"/>
	<stop  offset="1" style="stop-color:#BCBEC0"/>
</radialGradient>
<path fill="url(#SVGID_50_)" d="M441.9,494.3c0,9.3-7.6,17-17,17c-9.3,0-17-7.6-17-17s7.6-17,17-17
	C434.5,477.3,441.9,485,441.9,494.3z"/>
<radialGradient id="SVGID_51_" cx="150.3441" cy="608.8323" r="8.7115" gradientTransform="matrix(2.3906 0 0 -2.3906 0 1983.375)" gradientUnits="userSpaceOnUse">
	<stop  offset="0" style="stop-color:#F1F2F2"/>
	<stop  offset="1" style="stop-color:#C2B59B"/>
</radialGradient>
<path fill="url(#SVGID_51_)" d="M375.2,535c0,11.5-9.3,20.8-20.8,20.8s-20.8-9.3-20.8-20.8c0-11.5,9.3-20.8,20.8-20.8
	C365.9,514.2,375.2,523.5,375.2,535z"/>
<radialGradient id="SVGID_52_" cx="159.1841" cy="596.0671" r="11.5008" gradientTransform="matrix(2.3906 0 0 -2.3906 0 1983.375)" gradientUnits="userSpaceOnUse">
	<stop  offset="0" style="stop-color:#F1F2F2"/>
	<stop  offset="1" style="stop-color:#BCBEC0"/>
</radialGradient>
<circle fill="url(#SVGID_52_)" cx="373.8" cy="568" r="27.5"/>
<radialGradient id="SVGID_53_" cx="160.6451" cy="624.1726" r="7.5461" gradientTransform="matrix(2.3906 0 0 -2.3906 0 1983.375)" gradientUnits="userSpaceOnUse">
	<stop  offset="0" style="stop-color:#BCBEC0"/>
	<stop  offset="1" style="stop-color:#6D6E71"/>
</radialGradient>
<path fill="url(#SVGID_53_)" stroke="#FFFFFF" d="M397.7,497.4c0,10-8.1,17.9-17.9,17.9c-10,0-17.9-8.1-17.9-17.9
	c0-10,8.1-17.9,17.9-17.9S397.7,487.4,397.7,497.4z"/>
<radialGradient id="SVGID_54_" cx="193.1288" cy="623.4646" r="8.4744" gradientTransform="matrix(2.3906 0 0 -2.3906 0 1983.375)" gradientUnits="userSpaceOnUse">
	<stop  offset="0" style="stop-color:#F1F2F2"/>
	<stop  offset="1" style="stop-color:#C2B59B"/>
</radialGradient>
<path fill="url(#SVGID_54_)" d="M477,499.8c0,11.2-9.1,20.3-20.3,20.3s-20.3-9.1-20.3-20.3s9.1-20.3,20.3-20.3
	C468,479.7,477,488.8,477,499.8z"/>
<radialGradient id="SVGID_55_" cx="161.5402" cy="610.0192" r="7.546" gradientTransform="matrix(2.3906 0 0 -2.3906 0 1983.375)" gradientUnits="userSpaceOnUse">
	<stop  offset="0" style="stop-color:#F1F2F2"/>
	<stop  offset="1" style="stop-color:#BCBEC0"/>
</radialGradient>
<path fill="url(#SVGID_55_)" d="M399.8,531.4c0,10-8.1,17.9-17.9,17.9c-10,0-17.9-8.1-17.9-17.9c0-10,8.1-17.9,17.9-17.9
	C391.7,513.2,399.8,521.3,399.8,531.4z"/>
<radialGradient id="SVGID_56_" cx="155.1755" cy="598.458" r="5.6861" gradientTransform="matrix(2.3906 0 0 -2.3906 0 1983.375)" gradientUnits="userSpaceOnUse">
	<stop  offset="0" style="stop-color:#F1F2F2"/>
	<stop  offset="1" style="stop-color:#C2B59B"/>
</radialGradient>
<circle fill="url(#SVGID_56_)" cx="367.5" cy="557.4" r="13.6"/>
<radialGradient id="SVGID_57_" cx="153.2038" cy="582.7175" r="6.3839" gradientTransform="matrix(2.3906 0 0 -2.3906 0 1983.375)" gradientUnits="userSpaceOnUse">
	<stop  offset="0" style="stop-color:#F1F2F2"/>
	<stop  offset="1" style="stop-color:#C2B59B"/>
</radialGradient>
<path fill="url(#SVGID_57_)" d="M377.8,595.7c0,8.4-6.9,15.3-15.3,15.3s-15.3-6.9-15.3-15.3s6.9-15.3,15.3-15.3
	C370.9,580.4,377.8,587.1,377.8,595.7z"/>
<radialGradient id="SVGID_58_" cx="202.7037" cy="621.5081" r="6.9829" gradientTransform="matrix(2.3906 0 0 -2.3906 0 1983.375)" gradientUnits="userSpaceOnUse">
	<stop  offset="0" style="stop-color:#F1F2F2"/>
	<stop  offset="1" style="stop-color:#BCBEC0"/>
</radialGradient>
<path fill="url(#SVGID_58_)" d="M497.1,503.4c0,9.3-7.4,16.7-16.7,16.7s-16.7-7.4-16.7-16.7s7.4-16.7,16.7-16.7
	S497.1,494.1,497.1,503.4z"/>
<radialGradient id="SVGID_59_" cx="140.9615" cy="601.7026" r="5.4515" gradientTransform="matrix(2.3906 0 0 -2.3906 0 1983.375)" gradientUnits="userSpaceOnUse">
	<stop  offset="0" style="stop-color:#BCBEC0"/>
	<stop  offset="1" style="stop-color:#6D6E71"/>
</radialGradient>
<path fill="url(#SVGID_59_)" d="M346.8,549.3c0,7.2-5.7,13.1-13.1,13.1c-7.2,0-12.9-5.7-12.9-13.1c0-7.2,5.7-12.9,12.9-12.9
	C341,536.4,346.8,542.1,346.8,549.3z"/>
<radialGradient id="SVGID_60_" cx="171.5614" cy="626.9841" r="7.5444" gradientTransform="matrix(2.3906 0 0 -2.3906 0 1983.375)" gradientUnits="userSpaceOnUse">
	<stop  offset="0" style="stop-color:#F1F2F2"/>
	<stop  offset="1" style="stop-color:#BCBEC0"/>
</radialGradient>
<path fill="url(#SVGID_60_)" d="M423.7,490.7c0,10-8.1,17.9-17.9,17.9c-10,0-17.9-8.1-17.9-17.9c0-10,8.1-17.9,17.9-17.9
	C415.6,472.6,423.7,480.7,423.7,490.7z"/>
<radialGradient id="SVGID_61_" cx="212.5075" cy="653.0146" r="6.0035" gradientTransform="matrix(2.3906 0 0 -2.3906 0 1983.375)" gradientUnits="userSpaceOnUse">
	<stop  offset="0" style="stop-color:#F1F2F2"/>
	<stop  offset="1" style="stop-color:#BCBEC0"/>
</radialGradient>
<path fill="url(#SVGID_61_)" d="M518.9,427.1c0,7.9-6.5,14.3-14.3,14.3s-14.3-6.5-14.3-14.3s6.5-14.3,14.3-14.3
	S518.9,419.3,518.9,427.1z"/>
<radialGradient id="SVGID_62_" cx="202.5443" cy="672.3746" r="3.3729" gradientTransform="matrix(2.3906 0 0 -2.3906 0 1983.375)" gradientUnits="userSpaceOnUse">
	<stop  offset="0" style="stop-color:#F1F2F2"/>
	<stop  offset="1" style="stop-color:#BCBEC0"/>
</radialGradient>
<path fill="url(#SVGID_62_)" d="M490.2,378.9c0,4.5-3.6,8.1-8.1,8.1s-8.1-3.6-8.1-8.1c0-4.5,3.6-8.1,8.1-8.1
	S490.2,374.3,490.2,378.9z"/>
<radialGradient id="SVGID_63_" cx="161.1545" cy="730.541" r="7.5459" gradientTransform="matrix(2.3906 0 0 -2.3906 0 1983.375)" gradientUnits="userSpaceOnUse">
	<stop  offset="0" style="stop-color:#F1F2F2"/>
	<stop  offset="1" style="stop-color:#C2B59B"/>
</radialGradient>
<path fill="url(#SVGID_63_)" stroke="#FFFFFF" d="M398.9,243.1c0,10-8.1,17.9-17.9,17.9c-10,0-17.9-8.1-17.9-17.9
	c0-10,8.1-17.9,17.9-17.9S398.9,233.3,398.9,243.1z"/>
<radialGradient id="SVGID_64_" cx="145.9117" cy="578.7197" r="7.1927" gradientTransform="matrix(2.3906 0 0 -2.3906 0 1983.375)" gradientUnits="userSpaceOnUse">
	<stop  offset="0" style="stop-color:#F1F2F2"/>
	<stop  offset="1" style="stop-color:#BCBEC0"/>
</radialGradient>
<path fill="url(#SVGID_64_)" d="M361.8,605.7c0,9.6-7.6,17.2-17.2,17.2s-17.2-7.6-17.2-17.2s7.6-17.2,17.2-17.2
	S361.8,596.4,361.8,605.7z"/>
<radialGradient id="SVGID_65_" cx="195.6347" cy="669.1966" r="3.5124" gradientTransform="matrix(2.3906 0 0 -2.3906 0 1983.375)" gradientUnits="userSpaceOnUse">
	<stop  offset="0" style="stop-color:#F1F2F2"/>
	<stop  offset="1" style="stop-color:#BCBEC0"/>
</radialGradient>
<circle fill="url(#SVGID_65_)" cx="465.6" cy="386.5" r="8.4"/>
<radialGradient id="SVGID_66_" cx="995.0539" cy="636.9789" r="5.0199" gradientTransform="matrix(1.945 0 0 -1.8052 -1557.8185 1771.3524)" gradientUnits="userSpaceOnUse">
	<stop  offset="0" style="stop-color:#F1F2F2"/>
	<stop  offset="1" style="stop-color:#C2B59B"/>
</radialGradient>
<ellipse fill="url(#SVGID_66_)" cx="375.2" cy="624.6" rx="9.8" ry="9.1"/>
<radialGradient id="SVGID_67_" cx="198.7924" cy="753.3283" r="14.0594" gradientTransform="matrix(2.3906 0 0 -2.3906 0 1983.375)" gradientUnits="userSpaceOnUse">
	<stop  offset="0" style="stop-color:#F1F2F2"/>
	<stop  offset="1" style="stop-color:#BCBEC0"/>
</radialGradient>
<path fill="url(#SVGID_67_)" d="M500.5,194.1c0,18.6-15.1,33.7-33.7,33.7s-33.7-15.1-33.7-33.7s15.1-33.7,33.7-33.7
	S500.5,175.4,500.5,194.1z"/>
<radialGradient id="SVGID_68_" cx="162.6771" cy="683.5907" r="5.5582" gradientTransform="matrix(2.3906 0 0 -2.3906 0 1983.375)" gradientUnits="userSpaceOnUse">
	<stop  offset="0" style="stop-color:#F1F2F2"/>
	<stop  offset="1" style="stop-color:#BCBEC0"/>
</radialGradient>
<circle fill="url(#SVGID_68_)" cx="385.7" cy="353.8" r="13.4"/>
<radialGradient id="SVGID_69_" cx="172.3983" cy="685.7989" r="5.6852" gradientTransform="matrix(2.3906 0 0 -2.3906 0 1983.375)" gradientUnits="userSpaceOnUse">
	<stop  offset="0" style="stop-color:#F1F2F2"/>
	<stop  offset="1" style="stop-color:#C2B59B"/>
</radialGradient>
<circle fill="url(#SVGID_69_)" cx="408.9" cy="348.5" r="13.6"/>
<line fill="none" stroke="#F79420" stroke-width="2" stroke-miterlimit="10" x1="382.1" y1="241.2" x2="189.2" y2="177.6"/>
<line fill="none" stroke="#F79420" stroke-width="2" stroke-miterlimit="10" x1="377.6" y1="500.1" x2="189.2" y2="563.4"/>
<line fill="none" stroke="#F79420" stroke-width="2" stroke-miterlimit="10" x1="431.6" y1="368.1" x2="189.2" y2="368.1"/>
<circle fill="#C2B59B" cx="187.1" cy="177.6" r="21.3"/>
<circle fill="#B1B3B6" cx="187.1" cy="365.9" r="21.3"/>
<circle fill="#58595B" cx="187.1" cy="563.4" r="21.3"/>
<g enable-background="new    ">
	<path fill="#F79420" d="M74,184.7l-5-19h2.6l2.9,12.4c0.3,1.3,0.6,2.6,0.8,3.9c0.5-2,0.8-3.2,0.9-3.5l3.6-12.8h3l2.7,9.6
		c0.7,2.4,1.2,4.6,1.5,6.7c0.2-1.2,0.6-2.6,0.9-4.1l3-12.2h2.5l-5.2,19h-2.4l-4-14.5c-0.3-1.2-0.5-1.9-0.6-2.2
		c-0.2,0.9-0.4,1.6-0.6,2.2l-4,14.5H74z"/>
	<path fill="#F79420" d="M95.4,184.7v-19h2.3v6.8c1.1-1.3,2.5-1.9,4.1-1.9c1,0,1.9,0.2,2.7,0.6c0.8,0.4,1.3,1,1.6,1.7
		c0.3,0.7,0.5,1.7,0.5,3.1v8.7h-2.3V176c0-1.2-0.3-2-0.8-2.5c-0.5-0.5-1.2-0.8-2.1-0.8c-0.7,0-1.3,0.2-1.9,0.5
		c-0.6,0.4-1,0.8-1.3,1.5c-0.3,0.6-0.4,1.5-0.4,2.5v7.5H95.4z"/>
	<path fill="#F79420" d="M119.5,180.2l2.4,0.3c-0.4,1.4-1.1,2.5-2.1,3.3c-1,0.8-2.3,1.2-3.9,1.2c-2,0-3.6-0.6-4.8-1.9
		c-1.2-1.2-1.8-3-1.8-5.2c0-2.3,0.6-4.1,1.8-5.4c1.2-1.3,2.7-1.9,4.6-1.9c1.8,0,3.3,0.6,4.5,1.9c1.2,1.3,1.7,3,1.7,5.3
		c0,0.1,0,0.3,0,0.6h-10.2c0.1,1.5,0.5,2.7,1.3,3.5c0.8,0.8,1.7,1.2,2.9,1.2c0.9,0,1.6-0.2,2.2-0.7
		C118.7,181.9,119.2,181.2,119.5,180.2z M111.9,176.5h7.7c-0.1-1.2-0.4-2-0.9-2.6c-0.7-0.9-1.7-1.3-2.9-1.3c-1.1,0-2,0.4-2.7,1.1
		C112.4,174.3,112,175.3,111.9,176.5z"/>
	<path fill="#F79420" d="M133.8,183c-0.9,0.7-1.7,1.3-2.5,1.6c-0.8,0.3-1.7,0.5-2.6,0.5c-1.5,0-2.7-0.4-3.5-1.1
		c-0.8-0.7-1.2-1.7-1.2-2.8c0-0.7,0.2-1.3,0.5-1.8s0.7-1,1.2-1.3s1.1-0.6,1.7-0.8c0.5-0.1,1.1-0.2,2.1-0.3c1.9-0.2,3.3-0.5,4.2-0.8
		c0-0.3,0-0.5,0-0.6c0-0.9-0.2-1.6-0.7-2c-0.6-0.5-1.5-0.8-2.7-0.8c-1.1,0-1.9,0.2-2.4,0.6s-0.9,1.1-1.2,2l-2.3-0.3
		c0.2-1,0.5-1.8,1-2.4c0.5-0.6,1.2-1.1,2.1-1.4c0.9-0.3,1.9-0.5,3.1-0.5c1.2,0,2.1,0.1,2.9,0.4c0.7,0.3,1.3,0.6,1.6,1
		c0.3,0.4,0.6,0.9,0.7,1.6c0.1,0.4,0.1,1.1,0.1,2.1v3.1c0,2.2,0,3.5,0.1,4.1s0.3,1.1,0.6,1.6h-2.4
		C134.1,184.2,133.9,183.6,133.8,183z M133.6,177.8c-0.8,0.3-2.1,0.6-3.8,0.9c-1,0.1-1.6,0.3-2,0.5c-0.4,0.2-0.7,0.4-0.9,0.8
		c-0.2,0.3-0.3,0.7-0.3,1.1c0,0.6,0.2,1.1,0.7,1.6c0.5,0.4,1.2,0.6,2.1,0.6c0.9,0,1.7-0.2,2.4-0.6s1.2-0.9,1.5-1.6
		c0.3-0.5,0.4-1.3,0.4-2.3V177.8z"/>
	<path fill="#F79420" d="M144.7,182.6l0.3,2.1c-0.7,0.1-1.2,0.2-1.8,0.2c-0.8,0-1.5-0.1-2-0.4c-0.5-0.3-0.8-0.6-1-1.1
		c-0.2-0.4-0.3-1.4-0.3-2.8v-7.9h-1.7v-1.8h1.7v-3.4l2.3-1.4v4.8h2.3v1.8h-2.3v8c0,0.7,0,1.1,0.1,1.3c0.1,0.2,0.2,0.3,0.4,0.5
		s0.5,0.2,0.8,0.2C143.9,182.7,144.3,182.6,144.7,182.6z"/>
</g>
<g enable-background="new    ">
	<path fill="#F79420" d="M24,372.9v-19h6.5c1.5,0,2.6,0.1,3.4,0.3c1.1,0.3,2,0.7,2.8,1.4c1,0.8,1.7,1.9,2.2,3.2
		c0.5,1.3,0.7,2.8,0.7,4.5c0,1.4-0.2,2.7-0.5,3.8c-0.3,1.1-0.8,2-1.3,2.8c-0.5,0.7-1.1,1.3-1.7,1.7c-0.6,0.4-1.4,0.7-2.3,1
		c-0.9,0.2-1.9,0.3-3,0.3H24z M26.5,370.7h4.1c1.3,0,2.2-0.1,2.9-0.3s1.3-0.6,1.7-1c0.6-0.6,1.1-1.4,1.4-2.4c0.3-1,0.5-2.2,0.5-3.7
		c0-2-0.3-3.5-1-4.6c-0.7-1.1-1.4-1.8-2.4-2.1c-0.7-0.3-1.8-0.4-3.2-0.4h-4V370.7z"/>
	<path fill="#F79420" d="M42,366c0-2.5,0.7-4.4,2.1-5.7c1.2-1,2.6-1.5,4.3-1.5c1.9,0,3.4,0.6,4.6,1.9c1.2,1.2,1.8,2.9,1.8,5.1
		c0,1.8-0.3,3.2-0.8,4.2c-0.5,1-1.3,1.8-2.3,2.4c-1,0.6-2.1,0.8-3.3,0.8c-1.9,0-3.5-0.6-4.7-1.9C42.6,370.1,42,368.3,42,366z
		 M44.4,366c0,1.8,0.4,3.1,1.2,4c0.8,0.9,1.7,1.3,2.9,1.3c1.2,0,2.1-0.4,2.9-1.3c0.8-0.9,1.2-2.2,1.2-4c0-1.7-0.4-3-1.2-3.9
		c-0.8-0.9-1.7-1.3-2.9-1.3c-1.2,0-2.1,0.4-2.9,1.3C44.7,362.9,44.4,364.3,44.4,366z"/>
	<path fill="#F79420" d="M61.4,372.9l-5.2-13.7h2.5l3,8.2c0.3,0.9,0.6,1.8,0.9,2.8c0.2-0.7,0.5-1.6,0.9-2.6l3.1-8.4h2.4l-5.2,13.7
		H61.4z"/>
	<path fill="#F79420" d="M80.2,368.5l2.4,0.3c-0.4,1.4-1.1,2.5-2.1,3.3c-1,0.8-2.3,1.2-3.9,1.2c-2,0-3.6-0.6-4.8-1.9
		c-1.2-1.2-1.8-3-1.8-5.2c0-2.3,0.6-4.1,1.8-5.4c1.2-1.3,2.7-1.9,4.6-1.9c1.8,0,3.3,0.6,4.5,1.9c1.2,1.3,1.7,3,1.7,5.3
		c0,0.1,0,0.3,0,0.6H72.5c0.1,1.5,0.5,2.7,1.3,3.5c0.8,0.8,1.7,1.2,2.9,1.2c0.9,0,1.6-0.2,2.2-0.7C79.4,370.2,79.9,369.4,80.2,368.5
		z M72.6,364.7h7.7c-0.1-1.2-0.4-2-0.9-2.6c-0.7-0.9-1.7-1.3-2.9-1.3c-1.1,0-2,0.4-2.7,1.1C73.1,362.5,72.7,363.5,72.6,364.7z"/>
	<path fill="#F79420" d="M102.1,365.4v-2.2l8,0v7c-1.2,1-2.5,1.7-3.8,2.2c-1.3,0.5-2.7,0.7-4,0.7c-1.9,0-3.6-0.4-5.1-1.2
		c-1.5-0.8-2.7-2-3.4-3.5c-0.8-1.5-1.2-3.2-1.2-5.1c0-1.8,0.4-3.6,1.2-5.2c0.8-1.6,1.9-2.8,3.3-3.6c1.4-0.8,3.1-1.2,5-1.2
		c1.4,0,2.6,0.2,3.7,0.7c1.1,0.4,2,1.1,2.6,1.9c0.6,0.8,1.1,1.8,1.4,3.1l-2.3,0.6c-0.3-1-0.6-1.7-1.1-2.3c-0.4-0.6-1-1-1.8-1.3
		c-0.8-0.3-1.7-0.5-2.6-0.5c-1.1,0-2.1,0.2-3,0.5c-0.8,0.3-1.5,0.8-2,1.4c-0.5,0.6-0.9,1.2-1.2,1.9c-0.5,1.2-0.7,2.4-0.7,3.8
		c0,1.7,0.3,3.1,0.9,4.2c0.6,1.1,1.4,2,2.5,2.5c1.1,0.6,2.3,0.8,3.5,0.8c1.1,0,2.1-0.2,3.2-0.6s1.8-0.9,2.4-1.3v-3.5H102.1z"/>
	<path fill="#F79420" d="M113.5,372.9v-13.7h2.1v2.1c0.5-1,1-1.6,1.5-1.9c0.5-0.3,1-0.5,1.5-0.5c0.8,0,1.6,0.3,2.4,0.8l-0.8,2.2
		c-0.6-0.3-1.1-0.5-1.7-0.5c-0.5,0-1,0.2-1.4,0.5c-0.4,0.3-0.7,0.7-0.9,1.3c-0.3,0.8-0.4,1.7-0.4,2.7v7.2H113.5z"/>
	<path fill="#F79420" d="M131.3,371.2c-0.9,0.7-1.7,1.3-2.5,1.6c-0.8,0.3-1.7,0.5-2.6,0.5c-1.5,0-2.7-0.4-3.5-1.1
		c-0.8-0.7-1.2-1.7-1.2-2.8c0-0.7,0.2-1.3,0.5-1.8s0.7-1,1.2-1.3s1.1-0.6,1.7-0.8c0.5-0.1,1.1-0.2,2.1-0.3c1.9-0.2,3.3-0.5,4.2-0.8
		c0-0.3,0-0.5,0-0.6c0-0.9-0.2-1.6-0.7-2c-0.6-0.5-1.5-0.8-2.7-0.8c-1.1,0-1.9,0.2-2.4,0.6s-0.9,1.1-1.2,2l-2.3-0.3
		c0.2-1,0.5-1.8,1-2.4c0.5-0.6,1.2-1.1,2.1-1.4c0.9-0.3,1.9-0.5,3.1-0.5c1.2,0,2.1,0.1,2.9,0.4c0.7,0.3,1.3,0.6,1.6,1
		c0.3,0.4,0.6,0.9,0.7,1.6c0.1,0.4,0.1,1.1,0.1,2.1v3.1c0,2.2,0,3.5,0.1,4.1s0.3,1.1,0.6,1.6h-2.4
		C131.6,372.4,131.4,371.8,131.3,371.2z M131.1,366c-0.8,0.3-2.1,0.6-3.8,0.9c-1,0.1-1.6,0.3-2,0.5c-0.4,0.2-0.7,0.4-0.9,0.8
		c-0.2,0.3-0.3,0.7-0.3,1.1c0,0.6,0.2,1.1,0.7,1.6c0.5,0.4,1.2,0.6,2.1,0.6c0.9,0,1.7-0.2,2.4-0.6s1.2-0.9,1.5-1.6
		c0.3-0.5,0.4-1.3,0.4-2.3V366z"/>
	<path fill="#F79420" d="M137,378.2l-0.3-2.2c0.5,0.1,1,0.2,1.3,0.2c0.5,0,0.9-0.1,1.2-0.3c0.3-0.2,0.6-0.4,0.8-0.7
		c0.1-0.2,0.4-0.8,0.7-1.7c0-0.1,0.1-0.3,0.2-0.6l-5.2-13.8h2.5l2.9,8c0.4,1,0.7,2.1,1,3.2c0.3-1.1,0.6-2.1,1-3.1l2.9-8h2.3l-5.2,14
		c-0.6,1.5-1,2.5-1.3,3.1c-0.4,0.8-0.9,1.3-1.4,1.7c-0.5,0.4-1.2,0.5-1.9,0.5C138.1,378.5,137.6,378.4,137,378.2z"/>
</g>
<g enable-background="new    ">
	<path fill="#F79420" d="M43.4,563.9l2.5,0.6c-0.5,2.1-1.5,3.6-2.8,4.7c-1.4,1.1-3,1.6-5,1.6c-2,0-3.7-0.4-5-1.2
		c-1.3-0.8-2.3-2-2.9-3.6c-0.7-1.6-1-3.3-1-5.1c0-2,0.4-3.7,1.1-5.2c0.8-1.5,1.8-2.6,3.2-3.4c1.4-0.8,2.9-1.1,4.6-1.1
		c1.9,0,3.5,0.5,4.8,1.4c1.3,1,2.2,2.3,2.7,4.1l-2.5,0.6c-0.4-1.4-1.1-2.4-1.9-3c-0.8-0.6-1.9-0.9-3.2-0.9c-1.5,0-2.7,0.3-3.7,1
		c-1,0.7-1.7,1.6-2.1,2.8c-0.4,1.2-0.6,2.4-0.6,3.6c0,1.6,0.2,3,0.7,4.2c0.5,1.2,1.2,2.1,2.2,2.7s2.1,0.9,3.2,0.9
		c1.4,0,2.6-0.4,3.6-1.2C42.4,566.7,43.1,565.5,43.4,563.9z"/>
	<path fill="#F79420" d="M47.8,563.7c0-2.5,0.7-4.4,2.1-5.7c1.2-1,2.6-1.5,4.3-1.5c1.9,0,3.4,0.6,4.6,1.9s1.8,2.9,1.8,5.1
		c0,1.8-0.3,3.2-0.8,4.2s-1.3,1.8-2.3,2.4c-1,0.6-2.1,0.8-3.3,0.8c-1.9,0-3.5-0.6-4.7-1.9C48.4,567.8,47.8,566,47.8,563.7z
		 M50.2,563.7c0,1.8,0.4,3.1,1.2,4c0.8,0.9,1.7,1.3,2.9,1.3c1.2,0,2.1-0.4,2.9-1.3c0.8-0.9,1.2-2.2,1.2-4c0-1.7-0.4-3-1.2-3.9
		c-0.8-0.9-1.7-1.3-2.9-1.3c-1.2,0-2.1,0.4-2.9,1.3C50.6,560.6,50.2,561.9,50.2,563.7z"/>
	<path fill="#F79420" d="M62.6,563.7c0-2.5,0.7-4.4,2.1-5.7c1.2-1,2.6-1.5,4.3-1.5c1.9,0,3.4,0.6,4.6,1.9s1.8,2.9,1.8,5.1
		c0,1.8-0.3,3.2-0.8,4.2s-1.3,1.8-2.3,2.4c-1,0.6-2.1,0.8-3.3,0.8c-1.9,0-3.5-0.6-4.7-1.9C63.2,567.8,62.6,566,62.6,563.7z
		 M65,563.7c0,1.8,0.4,3.1,1.2,4c0.8,0.9,1.7,1.3,2.9,1.3c1.2,0,2.1-0.4,2.9-1.3c0.8-0.9,1.2-2.2,1.2-4c0-1.7-0.4-3-1.2-3.9
		c-0.8-0.9-1.7-1.3-2.9-1.3c-1.2,0-2.1,0.4-2.9,1.3C65.4,560.6,65,561.9,65,563.7z"/>
	<path fill="#F79420" d="M78.1,570.5v-19h2.3v19H78.1z"/>
	<path fill="#F79420" d="M100.6,563.1v-2.2l8,0v7c-1.2,1-2.5,1.7-3.8,2.2c-1.3,0.5-2.7,0.7-4,0.7c-1.9,0-3.6-0.4-5.1-1.2
		c-1.5-0.8-2.7-2-3.4-3.5c-0.8-1.5-1.2-3.2-1.2-5.1c0-1.8,0.4-3.6,1.2-5.2s1.9-2.8,3.3-3.6c1.4-0.8,3.1-1.2,5-1.2
		c1.4,0,2.6,0.2,3.7,0.7c1.1,0.4,2,1.1,2.6,1.9c0.6,0.8,1.1,1.8,1.4,3.1l-2.3,0.6c-0.3-1-0.6-1.7-1.1-2.3c-0.4-0.6-1-1-1.8-1.3
		s-1.7-0.5-2.6-0.5c-1.1,0-2.1,0.2-3,0.5c-0.8,0.3-1.5,0.8-2,1.4c-0.5,0.6-0.9,1.2-1.2,1.9c-0.5,1.2-0.7,2.4-0.7,3.8
		c0,1.7,0.3,3.1,0.9,4.2c0.6,1.1,1.4,2,2.5,2.5c1.1,0.6,2.3,0.8,3.5,0.8c1.1,0,2.1-0.2,3.2-0.6c1-0.4,1.8-0.9,2.4-1.3v-3.5H100.6z"
		/>
	<path fill="#F79420" d="M112,570.5v-13.7h2.1v2.1c0.5-1,1-1.6,1.5-1.9c0.5-0.3,1-0.5,1.5-0.5c0.8,0,1.6,0.3,2.4,0.8l-0.8,2.2
		c-0.6-0.3-1.1-0.5-1.7-0.5c-0.5,0-1,0.2-1.4,0.5c-0.4,0.3-0.7,0.7-0.9,1.3c-0.3,0.8-0.4,1.7-0.4,2.7v7.2H112z"/>
	<path fill="#F79420" d="M129.9,568.8c-0.9,0.7-1.7,1.3-2.5,1.6c-0.8,0.3-1.7,0.5-2.6,0.5c-1.5,0-2.7-0.4-3.5-1.1
		c-0.8-0.7-1.2-1.7-1.2-2.8c0-0.7,0.2-1.3,0.5-1.8s0.7-1,1.2-1.3c0.5-0.3,1.1-0.6,1.7-0.8c0.5-0.1,1.1-0.2,2.1-0.3
		c1.9-0.2,3.3-0.5,4.2-0.8c0-0.3,0-0.5,0-0.6c0-0.9-0.2-1.6-0.7-2c-0.6-0.5-1.5-0.8-2.7-0.8c-1.1,0-1.9,0.2-2.4,0.6s-0.9,1.1-1.2,2
		l-2.3-0.3c0.2-1,0.5-1.8,1-2.4c0.5-0.6,1.2-1.1,2.1-1.4c0.9-0.3,1.9-0.5,3.1-0.5c1.2,0,2.1,0.1,2.9,0.4c0.7,0.3,1.3,0.6,1.6,1
		c0.3,0.4,0.6,0.9,0.7,1.6c0.1,0.4,0.1,1.1,0.1,2.1v3.1c0,2.2,0,3.5,0.1,4.1c0.1,0.6,0.3,1.1,0.6,1.7h-2.4
		C130.1,570,129.9,569.5,129.9,568.8z M129.7,563.6c-0.8,0.3-2.1,0.6-3.8,0.9c-1,0.1-1.6,0.3-2,0.5c-0.4,0.2-0.7,0.4-0.9,0.8
		c-0.2,0.3-0.3,0.7-0.3,1.1c0,0.6,0.2,1.1,0.7,1.6c0.5,0.4,1.2,0.6,2.1,0.6c0.9,0,1.7-0.2,2.4-0.6s1.2-0.9,1.5-1.6
		c0.3-0.5,0.4-1.3,0.4-2.3V563.6z"/>
	<path fill="#F79420" d="M135.5,575.8l-0.3-2.2c0.5,0.1,1,0.2,1.3,0.2c0.5,0,0.9-0.1,1.2-0.3c0.3-0.2,0.6-0.4,0.8-0.7
		c0.1-0.2,0.4-0.8,0.7-1.7c0-0.1,0.1-0.3,0.2-0.6l-5.2-13.8h2.5l2.9,8c0.4,1,0.7,2.1,1,3.2c0.3-1.1,0.6-2.1,1-3.1l2.9-8h2.3l-5.2,14
		c-0.6,1.5-1,2.5-1.3,3.1c-0.4,0.8-0.9,1.3-1.4,1.7c-0.5,0.4-1.2,0.5-1.9,0.5C136.6,576.1,136.1,576,135.5,575.8z"/>
</g>
<radialGradient id="SVGID_70_" cx="160.2057" cy="575.4762" r="4.0415" gradientTransform="matrix(2.3906 0 0 -2.3906 0 1983.375)" gradientUnits="userSpaceOnUse">
	<stop  offset="0" style="stop-color:#F1F2F2"/>
	<stop  offset="1" style="stop-color:#BCBEC0"/>
</radialGradient>
<circle fill="url(#SVGID_70_)" cx="380.7" cy="611" r="9.6"/>
<radialGradient id="SVGID_71_" cx="154.1991" cy="573.0007" r="4.8817" gradientTransform="matrix(2.3906 0 0 -2.3906 0 1983.375)" gradientUnits="userSpaceOnUse">
	<stop  offset="0" style="stop-color:#F1F2F2"/>
	<stop  offset="1" style="stop-color:#BCBEC0"/>
</radialGradient>
<path fill="url(#SVGID_71_)" d="M377.4,617.7c0,6.5-5.3,11.7-11.7,11.7s-11.7-5.3-11.7-11.7c0-6.5,5.3-11.7,11.7-11.7
	C372.1,606,377.4,611.2,377.4,617.7z"/>
<radialGradient id="SVGID_72_" cx="187.0234" cy="780.6154" r="3.395" gradientTransform="matrix(2.3906 0 0 -2.3906 0 1983.375)" gradientUnits="userSpaceOnUse">
	<stop  offset="0" style="stop-color:#F1F2F2"/>
	<stop  offset="1" style="stop-color:#BCBEC0"/>
</radialGradient>
<path fill="url(#SVGID_72_)" d="M455.3,117.3c0,4.5-3.6,8.1-8.1,8.1s-8.1-3.6-8.1-8.1c0-4.5,3.6-8.1,8.1-8.1
	S455.3,112.8,455.3,117.3z"/>
<radialGradient id="SVGID_73_" cx="1027.7183" cy="913.2849" r="5.0199" gradientTransform="matrix(1.945 0 0 -1.8052 -1557.8185 1771.3524)" gradientUnits="userSpaceOnUse">
	<stop  offset="0" style="stop-color:#F1F2F2"/>
	<stop  offset="1" style="stop-color:#C2B59B"/>
</radialGradient>
<ellipse fill="url(#SVGID_73_)" cx="438.8" cy="125.9" rx="9.8" ry="9.1"/>
</svg>
