<?xml version="1.0" encoding="utf-8"?>
<!-- Generator: Adobe Illustrator 18.0.0, SVG Export Plug-In . SVG Version: 6.00 Build 0)  -->
<!DOCTYPE svg PUBLIC "-//W3C//DTD SVG 1.1//EN" "http://www.w3.org/Graphics/SVG/1.1/DTD/svg11.dtd">
<svg version="1.1" id="Layer_1" xmlns="http://www.w3.org/2000/svg" xmlns:xlink="http://www.w3.org/1999/xlink" x="0px" y="0px"
	 viewBox="0 0 256 256" enable-background="new 0 0 256 256" xml:space="preserve">
<g>
	<path fill="#F79422" d="M74.6,81.8c0,0-15.2,1.4-18.8,24.6c0,0-2.9,15.7,14.4,45.4c0,0,23.3,44.3,57.7,68.5c0,0,26.3,20.9,47.9,0
		c0,0,8.3-7.2-12.9-28.2c0,0-19.5-19.5-31.3-14.3c0,0-5.1,6.2-5.8,9.3c0,0-35.9-42.1-35.2-48.3c0,0,9.1-0.7,12.1-8.2
		C102.8,130.6,105.7,98,74.6,81.8z"/>
	<path fill="#F79422" d="M136.4,173.8c0,0,8.2-3.8,26.9,12.7c0,0,18,15.2,16.9,28.3c0,0,5.9-2.5,6.1-8.5c0,0-0.9-13.3-20-28.3
		c0,0-17.1-14.1-24.6-10.3L136.4,173.8z"/>
	<path fill="#F79422" d="M78.1,78.6c0,0,9-0.9,21.2,20.9c0,0,12,20.3,6.6,32.3c0,0,6.3-0.4,8.6-5.9c0,0,3.6-12.8-9.5-33.3
		c0,0-11.5-19-19.8-17.9L78.1,78.6z"/>
</g>
</svg>
