<svg xmlns="http://www.w3.org/2000/svg" xmlns:xlink="http://www.w3.org/1999/xlink" version="1.1" x="0px" y="0px" viewBox="0 0 128 128" enable-background="new 0 0 128 128" xml:space="preserve"><g><path fill="#5D4832" d="M126.7 115.1c0 6.4-5.2 11.6-11.6 11.6H12.5c-6.4 0-11.6-5.2-11.6-11.6V12.4C0.9 6 6.1 0.8 12.5 0.8h102.7 c6.4 0 11.6 5.2 11.6 11.6V115.1z"/></g><path fill="#FFFFFF" d="M50.3 103.8c-9.7 0-18.7-2.8-26.3-7.7c1.3 0.2 2.7 0.2 4.1 0.2c8 0 15.5-2.7 21.3-7.4 c-7.5-0.1-13.9-5.1-16-11.9c1 0.2 2.1 0.3 3.2 0.3c1.6 0 3.1-0.2 4.5-0.6c-7.9-1.6-13.8-8.5-13.8-16.8c0-0.1 0-0.1 0-0.2 c2.3 1.3 5 2.1 7.8 2.1c-4.6-3.1-7.6-8.3-7.6-14.3c0-3.1 0.8-6.1 2.3-8.6c8.5 10.4 21.1 17.2 35.4 18c-0.3-1.3-0.4-2.6-0.4-3.9 c0-9.5 7.7-17.2 17.2-17.2c4.9 0 9.4 2.1 12.5 5.4c3.9-0.8 7.6-2.2 10.9-4.2c-1.3 4-4 7.4-7.6 9.5c3.5-0.4 6.8-1.3 9.9-2.7 c-2.3 3.4-5.2 6.5-8.6 8.9c0 0.7 0 1.5 0 2.2C99.1 77.6 81.8 103.8 50.3 103.8"/></svg>