<?xml version="1.0" encoding="utf-8"?>
<!-- Generator: Adobe Illustrator 18.1.0, SVG Export Plug-In . SVG Version: 6.00 Build 0)  -->
<svg version="1.1" id="Layer_1" xmlns="http://www.w3.org/2000/svg" xmlns:xlink="http://www.w3.org/1999/xlink" x="0px" y="0px"
	 viewBox="4.3 93.8 602 602" enable-background="new 4.3 93.8 602 602" xml:space="preserve">
<g>
	<path fill="#5D4832" d="M605.8,640.3c0,30.6-24.9,55.5-55.5,55.5H59.8c-30.6,0-55.5-24.9-55.5-55.5v-491
		c0-30.6,24.9-55.5,55.5-55.5h491c30.6,0,55.5,24.9,55.5,55.5v491H605.8z"/>
</g>
<path fill="#FFFFFF" d="M240.5,586.3c-46.4,0-89.4-13.4-125.7-36.8c6.2,1,12.9,1,19.6,1c38.2,0,74.1-12.9,101.8-35.4
	c-35.9-0.5-66.5-24.4-76.5-56.9c4.8,1,10,1.4,15.3,1.4c7.6,0,14.8-1,21.5-2.9c-37.8-7.6-66-40.6-66-80.3c0-0.5,0-0.5,0-1
	c11,6.2,23.9,10,37.3,10c-22-14.8-36.3-39.7-36.3-68.4c0-14.8,3.8-29.2,11-41.1c40.6,49.7,100.9,82.2,169.3,86.1
	c-1.4-6.2-1.9-12.4-1.9-18.6c0-45.4,36.8-82.2,82.2-82.2c23.4,0,44.9,10,59.8,25.8c18.6-3.8,36.3-10.5,52.1-20.1
	c-6.2,19.1-19.1,35.4-36.3,45.4c16.7-1.9,32.5-6.2,47.3-12.9c-11,16.3-24.9,31.1-41.1,42.6c0,3.3,0,7.2,0,10.5
	C473.8,461,391.1,586.3,240.5,586.3"/>
</svg>
