<?xml version="1.0" encoding="utf-8"?>
<!-- Generator: Adobe Illustrator 18.0.0, SVG Export Plug-In . SVG Version: 6.00 Build 0)  -->
<!DOCTYPE svg PUBLIC "-//W3C//DTD SVG 1.1//EN" "http://www.w3.org/Graphics/SVG/1.1/DTD/svg11.dtd">
<svg version="1.1" id="Layer_1" xmlns="http://www.w3.org/2000/svg" xmlns:xlink="http://www.w3.org/1999/xlink" x="0px" y="0px"
	 viewBox="0 0 250 250" enable-background="new 0 0 250 250" xml:space="preserve">
<g>
	<path fill="#F79420" d="M91.5,54.8c0.8-0.4,3-1.3,3-1.3c0.8-0.3,1.2-0.6,1.3-1.1l-0.1-1.4l-1-1.1c-0.5-0.2-1-0.1-1.7,0.1
		c0,0-2.5,1.1-3.1,1.4C90.3,51.9,91.3,54.2,91.5,54.8L91.5,54.8z"/>
	<path fill="#F79420" d="M44.1,94.2c-1.1-0.4-1.9,0-2.3,1.2c0,0-1.1,2.8-1.3,3.4c0.6,0.2,2.7,1.1,3.4,1.2c0.2-0.6,1.2-3.4,1.2-3.4
		c0.1-0.3,0.2-0.6,0.2-0.9C45.4,95.1,45.1,94.5,44.1,94.2L44.1,94.2z"/>
	<path fill="#F79420" d="M198.5,94.3c0,0.4,0.1,0.8,0.2,1.3c0.9,2,3,2.4,5.6,1.2c1.6-0.6,2.7-1.5,3.1-2.7c0.3-0.7,0.2-1.5-0.1-2.2
		c-0.9-2-2.9-2.4-5.7-1.2C199.6,91.5,198.5,92.8,198.5,94.3L198.5,94.3z"/>
	<path fill="#F79420" d="M146.2,48.9c0.9-0.6,1.5-1.6,1.9-3.2c0.1-0.5,0.2-1.1,0.2-1.6c0-0.7-0.2-1.4-0.5-2
		c-0.5-0.9-1.4-1.4-2.7-1.8c0,0-0.8-0.2-1.3-0.3c-0.1,0.7-1.9,8.1-2.1,8.8c0.5,0.1,1.3,0.3,1.3,0.3
		C144.2,49.5,145.3,49.5,146.2,48.9L146.2,48.9z"/>
	<path fill="#F79420" d="M93,46.2c0-0.2-0.1-0.5-0.1-0.6c-0.4-0.9-1-1.1-2-0.7c0,0-2.5,1-3.1,1.3c0.2,0.5,0.8,2,1.1,2.5
		c0.8-0.3,3-1.3,3-1.3C92.8,47.1,93,46.6,93,46.2L93,46.2z"/>
	<path fill="#F79420" d="M125.2,234c-58.8,0-106.4-47.6-106.4-106.4c0-58.8,47.6-106.4,106.4-106.4c58.7,0,106.3,47.6,106.3,106.4
		C231.5,186.4,183.9,234,125.2,234L125.2,234z M125.2,17.1c-61.1,0-110.6,49.5-110.6,110.5c0,61.1,49.5,110.6,110.6,110.6
		c61,0,110.5-49.5,110.5-110.6C235.7,66.5,186.2,17.1,125.2,17.1L125.2,17.1z"/>
	<path fill="#F79420" d="M126.1,180.2c0,0-0.1,0.7-0.7,0.7c-0.6-0.1-0.5-0.7-0.5-0.7s-0.4-25.4-0.4-42.7c0-17.4,0.4-36.2,0.4-36.2
		s0.1-0.8,0.6-0.8c0.5,0,0.6,0.8,0.6,0.8s0.4,18.9,0.4,36.2C126.5,154.9,126.1,180.2,126.1,180.2L126.1,180.2z M173.5,142.8
		c1-0.5,13.7-4.4,10.7-11.9c-2-5.3-5.9,1-8.6-1.1c-1-0.6-1.5-1.2,2.4-4.9c3.9-3.7,5.1-6.4,5.4-8.7c0.4-2.2,0.4-4-1.2-4.9
		c-1.6-0.8-3.7,1.4-4.3-1c-0.4-1.4,0.1-2.1,0.1-4.4c0-2.5-2.6-8.9-8.6-6.8c-3.9,1.4-1.8,8.2-2.9,9.5c-1,1.3-1.9-2.7-4.1-3.4
		c-2.5-0.7-4.3,1.7-4.3,3.8c0,2.2,1.5,6.2,1.9,7.8c0.3,1.3,1,4.7,0.6,5.6c-0.6,1.6-1.2,1.1-2.7-0.9c-1.2-1.7-0.6-0.9-2.9-3.7
		c-2.8-3.4-4.6,1.4-4.7,4.6c-0.2,3.3,2.2,14.4,2.2,15.8c-0.2,6.7-3.9-1-4-1.2c-2.5-3.7-7.1-1.9-5.6,2c2.7,7.4,5.1,13.6,2.5,19.8
		c-0.4,0.9-0.8,2.3-1.4,3.8c20.6-19.2,26.3-45.9,26.3-45.9c0.1-0.3,0.5-0.6,0.8-0.5c0.2,0.1,0.4,0.6,0.3,0.9
		c-0.1,0.1-6.7,39.6-42.8,59.9c-0.8,0.4-0.9,0-1-0.7c0.2-6.3,0.5-10.6,2.8-12c19.4-11.6,13.1-16.8,9.1-17.6c-4-0.8-6.3-7.4-0.8-10.2
		c9.8-5.5,14.7-25.1,2.6-20.8c-1.1,0.1-9.1,4.2-2-7.8c6.7-12.1,4.6-22.7-2.3-18.1c-1.8,1.2-6.9,6.7-5.9-1.2c1.8-12-1.1-16.2-4.7-17
		c0,0-0.4,0-0.6,0h-0.3v0c-0.2,0-1,0.1-1,0.1c-3.5,0.8-6.4,5-4.6,17c1.1,7.9-4,2.4-5.9,1.2c-6.9-4.6-9,6-2.3,18.1
		c7.1,12-0.9,7.9-2,7.8c-12.1-4.3-7.1,15.3,2.6,20.8c5.6,2.8,3.3,9.4-0.8,10.2c-4,0.8-10.3,6,9.1,17.6c2.3,1.4,2.6,5.7,2.8,12
		c-0.1,0.7-0.3,1.1-1,0.7c-36.1-20.2-42.8-59.8-42.8-59.8c-0.1-0.3,0.1-0.9,0.4-1c0.2-0.1,0.7,0.4,0.7,0.6c0,0,5.7,26.5,26.4,45.7
		c-0.7-1.4-1.1-2.9-1.4-3.8c-2.6-6.2-0.1-12.5,2.5-19.8c1.5-3.9-3.2-5.7-5.7-2c-0.1,0.2-3.8,7.9-4,1.2c-0.1-1.5,2.4-12.6,2.2-15.8
		c-0.2-3.2-1.9-8-4.7-4.6c-2.3,2.8-1.6,2-2.8,3.7c-1.5,1.9-2,2.4-2.7,0.9c-0.4-1,0.3-4.4,0.5-5.6c0.5-1.6,1.9-5.6,2-7.8
		c0-2.2-1.7-4.6-4.3-3.8c-2.3,0.6-3.2,4.6-4.1,3.4c-1-1.3,1.1-8.1-2.9-9.5c-6-2.1-8.7,4.3-8.7,6.8c0.1,2.3,0.5,3,0.2,4.4
		c-0.6,2.4-2.7,0.1-4.3,1c-1.5,0.9-1.5,2.7-1.2,4.9c0.4,2.3,1.5,5,5.4,8.7c3.8,3.7,3.3,4.3,2.4,4.9c-2.7,2-6.6-4.2-8.7,1.1
		c-2.9,7.5,9.7,11.4,10.8,11.9c2.7,1.3,4.2,4.2,0.5,3.4c-1.5-0.4-3.8-1.5-5.5,0.5c-4.8,5.3,7.5,14.4,15.7,16.1
		c8.2,1.7,15.4,4.8,18.5,6.2c3.1,1.4,16,10.3,16.9,13.9c0.3,1.1,0.8,1.9,2.1,1.9c1.2,0,1.8-0.6,2-1.8c0.8-3.6,13.9-12.6,16.9-14
		c3.1-1.3,10.4-4.4,18.5-6.2c8.2-1.7,20.4-10.8,15.7-16.1c-1.8-2-4.1-0.9-5.5-0.5C169.3,147,170.7,144,173.5,142.8L173.5,142.8z"/>
	<path fill="#F79420" d="M216.4,143.7c-0.4,2.4-1.6,3.9-3.7,4.6l-0.4,0.1l-1.2-2.8l0.5-0.2c1.2-0.5,1.7-1.1,1.9-2.3
		c0.1-0.8,0-1.6-0.5-2.2c-0.6-0.9-1.9-1.6-3.6-1.8c-2.9-0.5-4.9,0.4-5.2,2.5c-0.2,1.3,0.1,2.1,1.1,3l0.3,0.3l-2,2.2l-0.3-0.3
		c-1.7-1.4-2.4-3.3-2-5.6c0.6-3.8,4.1-5.8,8.6-5c2.4,0.4,4.4,1.5,5.5,3.1C216.4,140.5,216.7,142.1,216.4,143.7L216.4,143.7z
		 M213,156.7l-14.3-4.5l0.8-2.4l0.1-0.4l14.3,4.5L213,156.7L213,156.7z M209.8,164.8c0,0-10.1-4.6-10.8-5c-0.3,0.7-3,6.4-3,6.4
		l-2.6-1.3l4-8.7l0.2-0.4l13.6,6.2L209.8,164.8L209.8,164.8z M125.1,194.4c-36.8,0-66.7-29.9-66.7-66.8c0-36.9,29.9-66.7,66.7-66.7
		c36.9,0,66.8,29.8,66.8,66.7C191.9,164.5,162,194.4,125.1,194.4L125.1,194.4z M43.5,84.3l4.9-8.1l0.2-0.3l2.5,1.5
		c0,0-3.2,5.3-3.6,6c0.5,0.3,1.7,1,2.3,1.3c0.3-0.6,2-3.5,2-3.5l2.5,1.5c0,0-1.7,2.9-2.1,3.5c0.6,0.4,2.6,1.5,3.1,1.8
		c0.4-0.7,3.7-6.2,3.7-6.2l2.5,1.5L56.3,92L43.5,84.3L43.5,84.3z M53.6,98.1c0,0-5.7,0.6-6.2,0.7c-0.2,0.3-0.6,1.7-0.9,2.3
		c0.7,0.2,5.3,1.9,5.3,1.9l-1,2.8l-14-5.3l2.3-6.2c1.1-2.9,3.4-4,6.1-3c2,0.8,3.1,2.2,3.1,4.2v0.1c0.9-0.1,6.6-0.7,6.6-0.7
		L53.6,98.1L53.6,98.1z M48.8,162.5l-8,3.1l-1.1-2.8l8-3.1c1.2-0.5,2.1-1.1,2.5-1.8c0.2-0.5,0.2-1.3-0.1-2c-0.4-1.1-1.3-2.5-4.2-1.4
		l-8.1,3.1l-1-2.8l8.1-3c3.9-1.5,6.8-0.4,8.2,3.2C54.2,158.2,52.7,161,48.8,162.5L48.8,162.5z M33.4,139c-0.3-1.9,0.2-3.5,1.4-5.1
		l0.3-0.4l2.4,1.8l-0.3,0.4c-0.7,0.9-1,1.9-0.9,3.1c0.1,0.7,0.3,1.3,0.7,1.5l0.9,0.2c0.5-0.1,1-0.3,1.4-3c0.4-2.6,1.1-5,4-5.4
		c1.3-0.1,2.5,0.2,3.4,0.8c1,0.9,1.7,2.3,2,4.2c0.2,2.1-0.4,4.1-1.7,5.6l-0.3,0.3l-2.3-1.9l0.3-0.4c0.9-1,1.2-2.3,1.1-3.5
		c-0.2-2.2-1.2-2.3-1.9-2.2c-0.8,0.1-1.2,0.6-1.6,3.1c-0.4,2.9-1.1,4.9-3.9,5.2c-1.1,0.1-2.2-0.2-3.1-0.8
		C34.2,141.9,33.5,140.6,33.4,139L33.4,139z M48,128.3c0,1.1-0.9,2.1-2,2.1c-1.1,0-2-0.9-2-2c-0.1-1.1,0.9-2.1,2-2.1
		C47.1,126.3,48,127.2,48,128.3L48,128.3z M50.4,146.5c0.3,1.2-0.4,2.3-1.5,2.5c-1.1,0.3-2.2-0.3-2.5-1.4c-0.3-1.1,0.4-2.2,1.5-2.5
		l0,0C49,144.8,50.1,145.5,50.4,146.5L50.4,146.5z M34,111.9c0.4-2.3,1.6-3.9,3.7-4.6l0.4-0.2l1.1,2.8l-0.4,0.2
		c-1.2,0.5-1.6,1.1-1.8,2.3c-0.1,0.9,0,1.6,0.5,2.3c0.7,0.9,1.9,1.5,3.6,1.8c2.9,0.5,4.8-0.5,5.2-2.5c0.1-0.2,0.1-0.5,0.1-0.7
		c0-0.5-0.2-1-0.4-1.4c-0.4-0.6-1-0.8-1.5-1c-0.1,0.6-0.4,2.2-0.4,2.2l-2.9-0.5l0.9-5.3l2,0.3c1.9,0.3,3.4,1.2,4.3,2.4
		c0.8,1.2,1.2,2.7,0.9,4.3c-0.3,1.6-1.1,3-2.3,3.9c-1.6,1.2-3.8,1.5-6.3,1.1c-2.4-0.4-4.4-1.5-5.6-3.1c-0.7-1-1-2.1-1-3.4
		C33.9,112.6,34,112.2,34,111.9L34,111.9z M58.3,63.9l0.3-0.3l2.2,1.9c0,0-4,4.6-4.5,5.3c0.4,0.4,1.5,1.3,2,1.7
		c0.4-0.5,2.6-3.1,2.6-3.1l2.2,2c0,0-2.1,2.5-2.6,3c0.5,0.5,2.2,1.9,2.7,2.3c0.5-0.6,4.7-5.5,4.7-5.5l2.3,1.9l-6.7,7.8L52.1,71
		L58.3,63.9L58.3,63.9z M65.1,57.5l9.8,3.4c0,0,0.4,0.2,0.6,0.3c-0.3-0.4-1.1-1.3-1.1-1.3l-4.8-6l1.9-1.6L72,52l9.4,11.6l-2.2,1.6
		l-10-3.4c0,0-0.3-0.1-0.5-0.2c0.2,0.3,1.1,1.3,1.1,1.3l4.9,6.1l-2.3,1.8l-9.4-11.6L65.1,57.5L65.1,57.5z M89.9,42.3
		c1.3-0.6,2.6-0.6,3.6-0.2c1,0.3,1.7,1.1,2.1,2.2c0.2,0.5,0.3,1,0.3,1.4c0,0.6-0.4,1.1-0.6,1.6c1.2,0,2.5,0.7,3.2,2.4
		c0.3,0.8,0.5,1.5,0.5,2.1c0,0.6-0.1,1.1-0.3,1.5c-0.5,1.2-1.6,2.2-3.2,2.9L90,58.5l-5.9-13.7L89.9,42.3L89.9,42.3z M103.1,37.9
		l1.8,8.4c0.5,2.4,1.6,3.3,3.4,3c1.2-0.2,2.7-0.9,2-4l-1.8-8.5l2.5-0.6l0.4,0l1.8,8.4c0.5,2.2,0.2,3.9-0.6,5.2c-0.8,1.3-2,2-3.8,2.4
		c-1.6,0.4-3,0.2-4.2-0.6c-1.3-0.9-2.2-2.4-2.7-4.6l-1.8-8.4L103.1,37.9L103.1,37.9z M119.9,35.4l0.5,0l1,14.9l-3,0.2l-1-14.8
		L119.9,35.4L119.9,35.4z M126,35.7l0-0.4l3,0.1c0,0-0.6,11.2-0.7,12c0.8,0,7,0.4,7,0.4l-0.2,2.9l-10-0.5L126,35.7L126,35.7z
		 M141.4,37l0.1-0.4l4.2,1.1c4.4,1,6.4,4.4,5.4,8.9c-1.3,5.3-5.5,6.3-8.8,5.6l-4.2-1L141.4,37L141.4,37z M157.4,41.5l0.2-0.4
		l2.8,1.1l-5.5,13.9l-2.7-1.1L157.4,41.5L157.4,41.5z M165.9,44.5l2.5,1.4l0.4,10.4c0,0,0,0.4,0,0.6c0.3-0.6,0.8-1.4,0.8-1.4
		l3.8-6.7l2.5,1.5l-7.4,13l-2.4-1.3l-0.5-10.7c0,0,0-0.3,0-0.4c-0.3,0.5-0.8,1.5-0.8,1.5l-3.8,6.7l-2.5-1.4l7.2-12.6L165.9,44.5
		L165.9,44.5z M185.7,57.6c1.8,1.5,2.5,3.4,2.1,5.5l-0.1,0.4l-3-0.5l0-0.4c0.2-1.2,0-2-1-2.7c-0.7-0.6-1.4-0.9-2.2-0.8
		c-1.1,0.1-2.3,0.9-3.5,2.2c-1,1.3-1.7,2.6-1.5,3.7c0,0.8,0.4,1.5,1,2c0.7,0.6,1.4,0.8,2.1,0.8c0.6-0.1,1.2-0.4,1.5-0.8
		c-0.4-0.4-1.7-1.5-1.7-1.5l1.9-2.2l4,3.5l-1.3,1.6c-1.3,1.4-2.7,2.3-4.3,2.4c-1.4,0.1-2.9-0.4-4.1-1.5c-1.3-1.1-2-2.5-2.1-4.1
		c-0.1-2,0.7-4,2.3-6c1.7-1.9,3.6-3,5.5-3.2C183,56,184.5,56.5,185.7,57.6L185.7,57.6z M188.5,80.4c0.4-1.9,1.7-3.8,3.7-5.1
		c3.8-2.6,7.8-2.2,10,0.9c1.3,2,1.6,3.9,0.6,5.9l-0.2,0.3l-2.8-1.2l0.1-0.4c0.5-1.2,0.5-1.9-0.2-2.9c-0.5-0.7-1.1-1.2-1.8-1.3
		c-1.1-0.2-2.5,0.2-3.9,1.1c-2.5,1.7-3.2,3.7-2,5.4c0.7,1,1.5,1.4,2.8,1.4l0.5-0.1v3l-0.4,0c-2.2,0.1-4.1-0.8-5.4-2.7
		C188.5,83.5,188.2,81.9,188.5,80.4L188.5,80.4z M210.1,90.6c0.7,1.5,0.8,3.1,0.1,4.6c-0.7,1.8-2.3,3.4-4.6,4.4
		c-2.3,0.9-4.5,1.1-6.3,0.4c-1.4-0.5-2.5-1.7-3.3-3.3c-0.6-1.4-0.7-3-0.1-4.5c0.8-1.9,2.4-3.4,4.7-4.4
		C204.7,85.9,208.6,87.1,210.1,90.6L210.1,90.6z M214.2,102.2l0.7,2.9l-8.4,1.8c-1.3,0.3-2.2,0.8-2.7,1.5c-0.3,0.6-0.4,1.2-0.2,2
		c0.2,0.8,0.5,1.5,1.1,1.8c0.7,0.5,1.7,0.5,2.9,0.2l8.5-1.8l0.7,2.9l-8.5,1.8c-4.1,1-6.8-0.5-7.6-4.3c-0.8-3.5,1.1-6.1,5.2-7l8-1.8
		L214.2,102.2L214.2,102.2z M217.4,119.9l0,2.9l-8.6,5.7c0,0-0.4,0.2-0.6,0.3c0.3,0,1.7,0,1.7,0l7.6-0.2l0,3l-14.9,0.3v-2.7l8.9-6
		c0,0,0.2-0.1,0.3-0.2c-0.3,0-1.6,0-1.6,0l-7.7,0.2l0-2.9L217,120L217.4,119.9L217.4,119.9z M125.1,25.1
		C68.5,25.1,22.6,71,22.6,127.6c0,56.6,45.9,102.5,102.5,102.5c56.6,0,102.5-45.9,102.5-102.5C227.6,71,181.7,25.1,125.1,25.1
		L125.1,25.1z"/>
	<g>
		<path fill="#FFFFFF" d="M77.9,207.6l3.5-5.3c0.5-0.8,1.7-2.6,2.1-3.1c-0.5,0.4-1.7,1.1-2.6,1.7l-7.2,4.5l1.3-8.3
			c0.2-1.1,0.4-2.4,0.5-3.1c-0.4,0.5-1.5,2.4-2,3.2l-3.5,5.2l-2.8-1.8l9.5-14.4l2.8,1.8l-1.3,8.5c-0.2,1-0.5,2.3-0.6,3
			c0.5-0.4,1.7-1.2,2.6-1.7l7.1-4.6l2.9,1.9l-9.5,14.4L77.9,207.6L77.9,207.6z"/>
		<polygon fill="#FFFFFF" points="88.8,213.1 94.5,196.9 105.8,200.9 104.7,204.1 96.6,201.2 95.7,204 100.3,205.6 99.2,208.9 
			94.6,207.2 93.2,211.1 101.5,214.1 100.4,217.2 88.8,213.1 		"/>
		<path fill="#FFFFFF" d="M120.8,220.3l0.6-6.3c0.1-0.9,0.3-3.1,0.4-3.8c-0.3,0.6-0.9,1.7-1.5,2.7l-4.2,7.3l-2.7-7.9
			c-0.4-1.1-0.8-2.3-1-3c-0.1,0.6-0.2,2.8-0.3,3.8l-0.7,6.3l-3.3-0.3l1.6-17.1l3.3,0.3l2.9,8.1c0.4,1,0.8,2.4,0.9,3
			c0.3-0.6,0.9-1.7,1.5-2.7l4.2-7.4l3.4,0.3l-1.6,17.1L120.8,220.3L120.8,220.3z"/>
		<path fill="#FFFFFF" d="M139.6,211.4l-4.5,0.7l0.7,4.4l4.5-0.7c1.6-0.2,2.3-1.2,2.1-2.6C142.2,211.7,141.3,211.1,139.6,211.4
			L139.6,211.4z M138.5,205.2l-4.3,0.7l0.5,3.2l4.5-0.7c1.4-0.2,1.8-0.9,1.6-1.8C140.7,205.4,139.9,204.9,138.5,205.2L138.5,205.2z
			 M140.7,219l-7.7,1.2l-2.6-17l7.8-1.2c3.3-0.5,5.6,0.8,6.1,3.6c0.3,1.5-0.2,2.7-1.3,3.6c1.5,0.4,2.7,1.5,3,3.3
			C146.4,216.2,144.3,218.5,140.7,219L140.7,219z"/>
		<polygon fill="#FFFFFF" points="154.3,215.8 147.9,199.8 158.9,195.4 160.2,198.6 152.3,201.7 153.4,204.4 158,202.6 159.3,205.7 
			154.7,207.6 156.2,211.4 164.5,208.1 165.7,211.3 154.3,215.8 		"/>
		<path fill="#FFFFFF" d="M170.4,192.2l-3.8,2.5l2.5,3.7l3.8-2.6c1.3-0.8,1.6-1.9,0.7-3.2C172.8,191.3,171.7,191.3,170.4,192.2
			L170.4,192.2z M179.9,202.5l-6-3.4L171,201l3.4,5.1l-2.8,1.9l-9.7-14.2l6.7-4.4c2.6-1.9,5.9-1.9,7.9,1.1c1.5,2.2,1.5,4.1,0.2,6.1
			l6.4,3.7L179.9,202.5L179.9,202.5z"/>
	</g>
</g>
</svg>
