<?xml version="1.0" encoding="utf-8"?>
<!-- Generator: Adobe Illustrator 18.1.0, SVG Export Plug-In . SVG Version: 6.00 Build 0)  -->
<svg version="1.1"
	 id="Layer_1" xmlns:dc="http://purl.org/dc/elements/1.1/" xmlns:cc="http://creativecommons.org/ns#" xmlns:rdf="http://www.w3.org/1999/02/22-rdf-syntax-ns#" xmlns:svg="http://www.w3.org/2000/svg" xmlns:sodipodi="http://sodipodi.sourceforge.net/DTD/sodipodi-0.dtd" xmlns:inkscape="http://www.inkscape.org/namespaces/inkscape" inkscape:version="0.48.5 r10040"
	 xmlns="http://www.w3.org/2000/svg" xmlns:xlink="http://www.w3.org/1999/xlink" x="0px" y="0px" viewBox="0 90 612 612"
	 enable-background="new 0 90 612 612" xml:space="preserve">
<g transform="matrix(0.21262458,0,0,0.21262458,-0.91428569,-19.944183)">
	<path inkscape:connector-curvature="0" fill="#5D4832" d="M2880.2,3130c0,146.3-119.1,265.4-265.4,265.4H269.7
		c-146.3,0-265.4-119.1-265.4-265.4V782.4c0-146.3,119.1-265.4,265.4-265.4h2347.6c146.3,0,265.4,119.1,265.4,265.4V3130H2880.2z"/>
</g>
<g transform="matrix(0.21262458,0,0,0.21262458,-0.91428569,-19.944183)">
	<path inkscape:connector-curvature="0" fill="#FFFFFF" d="M2443.7,2860.4c0,75.5-61.7,141.5-137.2,143.9l-713.4,36.8
		c-75.5,4.8-198.9,4.8-274.4,0l-738.2-36.8c-75.5-4.8-137.2-68.4-137.2-143.9v-845.8c0-75.5,61.7-139.6,137.2-141.5l722.4-20.6
		c75.5-2.4,198.9-2.4,274.4,0l729.1,20.6c75.5,2.4,137.2,66.5,137.2,141.5V2860.4z"/>
</g>
<g transform="matrix(0.21262458,0,0,0.21262458,-0.91428569,-19.944183)" enable-background="new    ">
	<path inkscape:connector-curvature="0" fill="#FFFFFF" d="M1001.7,1717.6v-305L827.2,945.5h130l69.8,192.7
		c5.3,14.8,27.3,80.8,31.6,94.7h3.8c10.5-32.5,12.9-37.8,31.6-92.8l66.9-194.6h128.6l-166.4,460.9v311.3L1001.7,1717.6
		L1001.7,1717.6z"/>
	<path inkscape:connector-curvature="0" fill="#FFFFFF" d="M1423.9,1143.4c44.5,0,101.4,5.3,136.7,85.1
		c19.6,45.4,24.9,108.5,24.9,208.5c0,114.7-1.4,179.8-43,236.7c-13.4,17.7-38.2,52.6-109,52.6c-23.9,0-66.5-1.9-91.8-22
		c-66.9-52.6-70.8-143.9-70.8-279.7C1270.9,1318.9,1270.9,1143.4,1423.9,1143.4L1423.9,1143.4z M1378,1475.7
		c0,20.1,2.4,71.7,5.3,89.4c8.1,50.7,38.2,50.7,45.9,50.7c50.2,0,50.2-49.2,50.2-199.9c0-87.5,0-161.1-49.7-161.1
		c-52.1,0-52.1,68.4-52.1,111.4v109.5L1378,1475.7z"/>
	<path inkscape:connector-curvature="0" fill="#FFFFFF" d="M2003.8,1160.2v557.5h-96.1V1623h-4.3c-22.5,52.6-51.2,108.5-115.2,108.5
		c-94.7,0-98.5-109.5-98.5-148.2v-422.7h105.2v362.9c0,37.8,6.2,77.9,36.3,77.9c12,0,28.7-10.5,33.9-14.8
		c18.6-14.8,27.7-32.5,33.9-43v-383h104.7V1160.2z"/>
</g>
<g transform="matrix(0.21262458,0,0,0.21262458,-0.91428569,-19.944183)" enable-background="new    ">
	<path inkscape:connector-curvature="0" fill="#5D4832" d="M1083.4,2059.5v141H945.7v631.1H819.5v-631.1H678.9v-141H1083.4z"/>
	<path inkscape:connector-curvature="0" fill="#5D4832" d="M1417.2,2274.2v557.5h-96.1V2737h-4.3c-22.5,52.6-51.2,108.5-115.2,108.5
		c-94.7,0-98.5-109.5-98.5-148.2v-422.7h105.2v362.9c0,37.8,6.2,77.9,36.3,77.9c12,0,28.7-10.5,33.9-14.8
		c18.6-14.8,27.7-32.5,33.9-43v-383h104.7V2274.2z"/>
	<path inkscape:connector-curvature="0" fill="#5D4832" d="M1518,2059.5h105.7v283h2.4c50.2-83.2,87.5-84.1,106.6-84.1
		c94.7,0,100.9,124.3,100.9,210.4l1,85.1c0,63.1-1,115.7-5.3,159.7c-2.9,26.3-18.2,126.2-102.3,126.2c-46.9,0-82.2-38.7-105.2-99
		h-4.3v90.4H1518V2059.5z M1623.7,2666.2c9.6,14.8,28.7,43,59.3,43c42.1,0,43.5-51.6,43.5-164c0-126.2-1.4-170.2-41.6-170.2
		c-19.6,0-31.1,8.6-61.7,42.1v249.1H1623.7z"/>
	<path inkscape:connector-curvature="0" fill="#5D4832" d="M2021.5,2583.1c-1,56.9-1,152.5,73.2,152.5c32.5,0,58.8-8.6,106.1-41.1
		l11.5,111.4c-40.6,20.1-73.6,36.8-126.2,36.8c-48.8,0-129.6-14.8-153.5-143c-7.7-41.1-9.6-107.1-9.6-111.4c0-98,0-189.3,27.3-251.5
		c31.1-71.7,89.4-78.9,121.9-78.9c64.5,0,95.6,37.8,115.2,78.9c23.9,49.2,23.9,101.8,23.9,246.2H2021.5z M2122.9,2500.3
		c0-84.1-1-148.2-53.5-148.2c-49.7,0-48.8,77.9-48.3,148.2H2122.9L2122.9,2500.3z"/>
</g>
</svg>
