<svg xmlns:dc="http://purl.org/dc/elements/1.1/" xmlns:cc="http://creativecommons.org/ns#" xmlns:rdf="http://www.w3.org/1999/02/22-rdf-syntax-ns#" xmlns:svg="http://www.w3.org/2000/svg" xmlns="http://www.w3.org/2000/svg" xmlns:sodipodi="http://sodipodi.sourceforge.net/DTD/sodipodi-0.dtd" xmlns:inkscape="http://www.inkscape.org/namespaces/inkscape" version="1.1" x="0px" y="0px" viewBox="0 0 128 128" enable-background="new 0 0 612 792" xml:space="preserve" inkscape:version="0.48.5 r10040" width="100%" height="100%"><metadata><rdf:RDF><cc:Work rdf:about=""><dc:format>image/svg+xml</dc:format><dc:type rdf:resource="http://purl.org/dc/dcmitype/StillImage"/><dc:title/></cc:Work></rdf:RDF></metadata><defs/><g transform="matrix(0.21262458,0,0,0.21262458,-0.91428569,-19.944183)"><path d="m 605.8 640.3 c 0 30.6 -24.9 55.5 -55.5 55.5 H 59.8 C 29.2 695.8 4.3 670.9 4.3 640.3 v -491 c 0 -30.6 24.9 -55.5 55.5 -55.5 h 491 c 30.6 0 55.5 24.9 55.5 55.5 v 491 h -0.5 z" inkscape:connector-curvature="0" style="fill:#5d4832"/></g><g transform="matrix(0.21262458,0,0,0.21262458,-0.91428569,-19.944183)"><path d="m 514.5 583.9 c 0 15.8 -12.9 29.6 -28.7 30.1 l -149.2 7.7 c -15.8 1 -41.6 1 -57.4 0 L 124.8 614 C 109 613 96.1 599.7 96.1 583.9 V 407 c 0 -15.8 12.9 -29.2 28.7 -29.6 l 151.1 -4.3 c 15.8 -0.5 41.6 -0.5 57.4 0 l 152.5 4.3 c 15.8 0.5 28.7 13.9 28.7 29.6 v 176.9 z" inkscape:connector-curvature="0" style="fill:#ffffff"/></g><g enable-background="new    " transform="matrix(0.21262458,0,0,0.21262458,-0.91428569,-19.944183)"><path d="m 212.9 344.9 v -63.8 l -36.5 -97.7 h 27.2 l 14.6 40.3 c 1.1 3.1 5.7 16.9 6.6 19.8 h 0.8 c 2.2 -6.8 2.7 -7.9 6.6 -19.4 l 14 -40.7 h 26.9 l -34.8 96.4 v 65.1 h -25.4 z" inkscape:connector-curvature="0" style="fill:#ffffff"/><path d="m 301.2 224.8 c 9.3 0 21.2 1.1 28.6 17.8 4.1 9.5 5.2 22.7 5.2 43.6 0 24 -0.3 37.6 -9 49.5 -2.8 3.7 -8 11 -22.8 11 -5 0 -13.9 -0.4 -19.2 -4.6 -14 -11 -14.8 -30.1 -14.8 -58.5 0 -22.1 0 -58.8 32 -58.8 z m -9.6 69.5 c 0 4.2 0.5 15 1.1 18.7 1.7 10.6 8 10.6 9.6 10.6 10.5 0 10.5 -10.3 10.5 -41.8 0 -18.3 0 -33.7 -10.4 -33.7 -10.9 0 -10.9 14.3 -10.9 23.3 v 22.9 z" inkscape:connector-curvature="0" style="fill:#ffffff"/><path d="m 422.5 228.3 v 116.6 h -20.1 v -19.8 h -0.9 c -4.7 11 -10.7 22.7 -24.1 22.7 -19.8 0 -20.6 -22.9 -20.6 -31 v -88.4 h 22 v 75.9 c 0 7.9 1.3 16.3 7.6 16.3 2.5 0 6 -2.2 7.1 -3.1 3.9 -3.1 5.8 -6.8 7.1 -9 v -80.1 h 21.9 z" inkscape:connector-curvature="0" style="fill:#ffffff"/></g><g enable-background="new    " transform="matrix(0.21262458,0,0,0.21262458,-0.91428569,-19.944183)"><path d="m 230 416.4 v 29.5 h -28.8 v 132 h -26.4 v -132 H 145.4 V 416.4 H 230 z" inkscape:connector-curvature="0" style="fill:#5d4832"/><path d="m 299.8 461.3 v 116.6 h -20.1 v -19.8 h -0.9 c -4.7 11 -10.7 22.7 -24.1 22.7 -19.8 0 -20.6 -22.9 -20.6 -31 v -88.4 h 22 v 75.9 c 0 7.9 1.3 16.3 7.6 16.3 2.5 0 6 -2.2 7.1 -3.1 3.9 -3.1 5.8 -6.8 7.1 -9 v -80.1 h 21.9 z" inkscape:connector-curvature="0" style="fill:#5d4832"/><path d="M 320.9 416.4 H 343 v 59.2 h 0.5 C 354 458.2 361.8 458 365.8 458 c 19.8 0 21.1 26 21.1 44 l 0.2 17.8 c 0 13.2 -0.2 24.2 -1.1 33.4 -0.6 5.5 -3.8 26.4 -21.4 26.4 -9.8 0 -17.2 -8.1 -22 -20.7 h -0.9 v 18.9 H 320.9 V 416.4 z M 343 543.3 c 2 3.1 6 9 12.4 9 8.8 0 9.1 -10.8 9.1 -34.3 0 -26.4 -0.3 -35.6 -8.7 -35.6 -4.1 0 -6.5 1.8 -12.9 8.8 v 52.1 z" inkscape:connector-curvature="0" style="fill:#5d4832"/><path d="m 426.2 525.9 c -0.2 11.9 -0.2 31.9 15.3 31.9 6.8 0 12.3 -1.8 22.2 -8.6 l 2.4 23.3 c -8.5 4.2 -15.4 7.7 -26.4 7.7 -10.2 0 -27.1 -3.1 -32.1 -29.9 -1.6 -8.6 -2 -22.4 -2 -23.3 0 -20.5 0 -39.6 5.7 -52.6 6.5 -15 18.7 -16.5 25.5 -16.5 13.5 0 20 7.9 24.1 16.5 5 10.3 5 21.3 5 51.5 h -39.7 z m 21.2 -17.3 c 0 -17.6 -0.2 -31 -11.2 -31 -10.4 0 -10.2 16.3 -10.1 31 h 21.3 z" inkscape:connector-curvature="0" style="fill:#5d4832"/></g></svg>