<?xml version="1.0" encoding="utf-8"?>
<!-- Generator: Adobe Illustrator 18.0.0, SVG Export Plug-In . SVG Version: 6.00 Build 0)  -->
<!DOCTYPE svg PUBLIC "-//W3C//DTD SVG 1.1//EN" "http://www.w3.org/Graphics/SVG/1.1/DTD/svg11.dtd">
<svg version="1.1" id="Layer_1" xmlns="http://www.w3.org/2000/svg" xmlns:xlink="http://www.w3.org/1999/xlink" x="0px" y="0px"
	 viewBox="0 0 612 792" enable-background="new 0 0 612 792" xml:space="preserve">
<g>
	<path fill="#5D4832" d="M605.8,640.3c0,30.6-24.9,55.5-55.5,55.5H59.8c-30.6,0-55.5-24.9-55.5-55.5v-491
		c0-30.6,24.9-55.5,55.5-55.5h491c30.6,0,55.5,24.9,55.5,55.5v491H605.8z"/>
</g>
<g>
	<path fill="#FFFFFF" d="M514.5,583.9c0,15.8-12.9,29.6-28.7,30.1l-149.2,7.7c-15.8,1-41.6,1-57.4,0L124.8,614
		c-15.8-1-28.7-14.3-28.7-30.1V407c0-15.8,12.9-29.2,28.7-29.6l151.1-4.3c15.8-0.5,41.6-0.5,57.4,0l152.5,4.3
		c15.8,0.5,28.7,13.9,28.7,29.6V583.9z"/>
</g>
<g enable-background="new    ">
	<path fill="#FFFFFF" d="M212.9,344.9v-63.8l-36.5-97.7h27.2l14.6,40.3c1.1,3.1,5.7,16.9,6.6,19.8h0.8c2.2-6.8,2.7-7.9,6.6-19.4
		l14-40.7h26.9l-34.8,96.4v65.1H212.9z"/>
	<path fill="#FFFFFF" d="M301.2,224.8c9.3,0,21.2,1.1,28.6,17.8c4.1,9.5,5.2,22.7,5.2,43.6c0,24-0.3,37.6-9,49.5
		c-2.8,3.7-8,11-22.8,11c-5,0-13.9-0.4-19.2-4.6c-14-11-14.8-30.1-14.8-58.5C269.2,261.5,269.2,224.8,301.2,224.8z M291.6,294.3
		c0,4.2,0.5,15,1.1,18.7c1.7,10.6,8,10.6,9.6,10.6c10.5,0,10.5-10.3,10.5-41.8c0-18.3,0-33.7-10.4-33.7c-10.9,0-10.9,14.3-10.9,23.3
		V294.3z"/>
	<path fill="#FFFFFF" d="M422.5,228.3v116.6h-20.1v-19.8h-0.9c-4.7,11-10.7,22.7-24.1,22.7c-19.8,0-20.6-22.9-20.6-31v-88.4h22v75.9
		c0,7.9,1.3,16.3,7.6,16.3c2.5,0,6-2.2,7.1-3.1c3.9-3.1,5.8-6.8,7.1-9v-80.1H422.5z"/>
</g>
<g enable-background="new    ">
	<path fill="#5D4832" d="M230,416.4v29.5h-28.8v132h-26.4v-132h-29.4v-29.5H230z"/>
	<path fill="#5D4832" d="M299.8,461.3v116.6h-20.1v-19.8h-0.9c-4.7,11-10.7,22.7-24.1,22.7c-19.8,0-20.6-22.9-20.6-31v-88.4h22v75.9
		c0,7.9,1.3,16.3,7.6,16.3c2.5,0,6-2.2,7.1-3.1c3.9-3.1,5.8-6.8,7.1-9v-80.1H299.8z"/>
	<path fill="#5D4832" d="M320.9,416.4H343v59.2h0.5c10.5-17.4,18.3-17.6,22.3-17.6c19.8,0,21.1,26,21.1,44l0.2,17.8
		c0,13.2-0.2,24.2-1.1,33.4c-0.6,5.5-3.8,26.4-21.4,26.4c-9.8,0-17.2-8.1-22-20.7h-0.9v18.9h-20.8V416.4z M343,543.3
		c2,3.1,6,9,12.4,9c8.8,0,9.1-10.8,9.1-34.3c0-26.4-0.3-35.6-8.7-35.6c-4.1,0-6.5,1.8-12.9,8.8V543.3z"/>
	<path fill="#5D4832" d="M426.2,525.9c-0.2,11.9-0.2,31.9,15.3,31.9c6.8,0,12.3-1.8,22.2-8.6l2.4,23.3c-8.5,4.2-15.4,7.7-26.4,7.7
		c-10.2,0-27.1-3.1-32.1-29.9c-1.6-8.6-2-22.4-2-23.3c0-20.5,0-39.6,5.7-52.6c6.5-15,18.7-16.5,25.5-16.5c13.5,0,20,7.9,24.1,16.5
		c5,10.3,5,21.3,5,51.5H426.2z M447.4,508.6c0-17.6-0.2-31-11.2-31c-10.4,0-10.2,16.3-10.1,31H447.4z"/>
</g>
</svg>
