<?xml version="1.0" encoding="UTF-8" standalone="no"?>
<!-- Generator: Adobe Illustrator 18.0.0, SVG Export Plug-In . SVG Version: 6.00 Build 0)  -->

<svg
   xmlns:dc="http://purl.org/dc/elements/1.1/"
   xmlns:cc="http://creativecommons.org/ns#"
   xmlns:rdf="http://www.w3.org/1999/02/22-rdf-syntax-ns#"
   xmlns:svg="http://www.w3.org/2000/svg"
   xmlns="http://www.w3.org/2000/svg"
   xmlns:sodipodi="http://sodipodi.sourceforge.net/DTD/sodipodi-0.dtd"
   xmlns:inkscape="http://www.inkscape.org/namespaces/inkscape"
   version="1.1"
   id="Layer_1"
   x="0px"
   y="0px"
   viewBox="0 0 128 128"
   enable-background="new 0 0 128 128"
   xml:space="preserve"
   inkscape:version="0.48.5 r10040"
   width="100%"
   height="100%"
   sodipodi:docname="youtube.svg"><metadata
   id="metadata3055"><rdf:RDF><cc:Work
       rdf:about=""><dc:format>image/svg+xml</dc:format><dc:type
         rdf:resource="http://purl.org/dc/dcmitype/StillImage" /></cc:Work></rdf:RDF></metadata><defs
   id="defs3053" /><sodipodi:namedview
   pagecolor="#ffffff"
   bordercolor="#666666"
   borderopacity="1"
   objecttolerance="10"
   gridtolerance="10"
   guidetolerance="10"
   inkscape:pageopacity="0"
   inkscape:pageshadow="2"
   inkscape:window-width="1234"
   inkscape:window-height="885"
   id="namedview3051"
   showgrid="false"
   inkscape:zoom="1.84375"
   inkscape:cx="154.0339"
   inkscape:cy="64"
   inkscape:window-x="0"
   inkscape:window-y="0"
   inkscape:window-maximized="0"
   inkscape:current-layer="Layer_1" />
<g
   id="g3037">
	<path
   fill="#5D4832"
   d="M126.7,115.1c0,6.4-5.2,11.6-11.6,11.6H12.5c-6.4,0-11.6-5.2-11.6-11.6V12.4C0.9,6,6.1,0.8,12.5,0.8h102.7   c6.4,0,11.6,5.2,11.6,11.6V115.1z"
   id="path3039" />
</g>
<g
   id="g3041">
	<path
   fill="#FFFFFF"
   d="M107.6,103.3c0,3.3-2.7,6.2-6,6.3l-31.2,1.6c-3.3,0.2-8.7,0.2-12,0l-32.3-1.6c-3.3-0.2-6-3-6-6.3v-37   c0-3.3,2.7-6.1,6-6.2l31.6-0.9c3.3-0.1,8.7-0.1,12,0l31.9,0.9c3.3,0.1,6,2.9,6,6.2V103.3z"
   id="path3043" />
</g>
<text
   transform="matrix(0.7869 0 0 1.1 36.0295 53.309)"
   id="text3045"><tspan
     x="0"
     y="0"
     fill="#FFFFFF"
     font-family="'BellGothic-Black'"
     font-size="41.8338"
     id="tspan3047">You</tspan><tspan
     x="-8.7"
     y="44.3"
     fill="#5D4832"
     font-family="'BellGothic-Black'"
     font-size="41.8338"
     id="tspan3049"><tspan
   style="font-weight:bold;-inkscape-font-specification:Sans Bold"
   id="tspan3076">Tub</tspan>e</tspan></text>

</svg>